<?xml version="1.0" encoding="UTF-8" standalone="no"?>
<!DOCTYPE svg PUBLIC "-//W3C//DTD SVG 1.1//EN"
 "http://www.w3.org/Graphics/SVG/1.1/DTD/svg11.dtd">
<!-- Generated by graphviz version 2.40.1 (20161225.0304)
 -->
<!-- Title: Tree Pages: 1 -->
<svg width="545pt" height="761pt"
 viewBox="0.00 0.00 545.00 761.00" xmlns="http://www.w3.org/2000/svg" xmlns:xlink="http://www.w3.org/1999/xlink">
<g id="graph0" class="graph" transform="scale(1 1) rotate(0) translate(4 757)">
<title>Tree</title>
<polygon fill="#ffffff" stroke="transparent" points="-4,4 -4,-757 541,-757 541,4 -4,4"/>
<!-- 0 -->
<g id="node1" class="node">
<title>0</title>
<polygon fill="none" stroke="#000000" points="289,-753 170,-753 170,-655 289,-655 289,-753"/>
<text text-anchor="middle" x="229.5" y="-737.8" font-family="Helvetica,sans-Serif" font-size="14.00" fill="#000000">X[2] &lt;= 2.6</text>
<text text-anchor="middle" x="229.5" y="-722.8" font-family="Helvetica,sans-Serif" font-size="14.00" fill="#000000">gini = 0.443</text>
<text text-anchor="middle" x="229.5" y="-707.8" font-family="Helvetica,sans-Serif" font-size="14.00" fill="#000000">samples = 112</text>
<text text-anchor="middle" x="229.5" y="-692.8" font-family="Helvetica,sans-Serif" font-size="14.00" fill="#000000">value = [[75, 37]</text>
<text text-anchor="middle" x="229.5" y="-677.8" font-family="Helvetica,sans-Serif" font-size="14.00" fill="#000000">[78, 34]</text>
<text text-anchor="middle" x="229.5" y="-662.8" font-family="Helvetica,sans-Serif" font-size="14.00" fill="#000000">[71, 41]]</text>
</g>
<!-- 1 -->
<g id="node2" class="node">
<title>1</title>
<polygon fill="none" stroke="#000000" points="221,-611.5 110,-611.5 110,-528.5 221,-528.5 221,-611.5"/>
<text text-anchor="middle" x="165.5" y="-596.3" font-family="Helvetica,sans-Serif" font-size="14.00" fill="#000000">gini = 0.0</text>
<text text-anchor="middle" x="165.5" y="-581.3" font-family="Helvetica,sans-Serif" font-size="14.00" fill="#000000">samples = 37</text>
<text text-anchor="middle" x="165.5" y="-566.3" font-family="Helvetica,sans-Serif" font-size="14.00" fill="#000000">value = [[0, 37]</text>
<text text-anchor="middle" x="165.5" y="-551.3" font-family="Helvetica,sans-Serif" font-size="14.00" fill="#000000">[37, 0]</text>
<text text-anchor="middle" x="165.5" y="-536.3" font-family="Helvetica,sans-Serif" font-size="14.00" fill="#000000">[37, 0]]</text>
</g>
<!-- 0&#45;&gt;1 -->
<g id="edge1" class="edge">
<title>0&#45;&gt;1</title>
<path fill="none" stroke="#000000" d="M206.0322,-654.8642C200.7367,-643.7768 195.1049,-631.9852 189.7769,-620.8297"/>
<polygon fill="#000000" stroke="#000000" points="192.855,-619.1533 185.3869,-611.6381 186.5384,-622.1702 192.855,-619.1533"/>
<text text-anchor="middle" x="177.0539" y="-631.5085" font-family="Helvetica,sans-Serif" font-size="14.00" fill="#000000">True</text>
</g>
<!-- 2 -->
<g id="node3" class="node">
<title>2</title>
<polygon fill="none" stroke="#000000" points="350,-619 239,-619 239,-521 350,-521 350,-619"/>
<text text-anchor="middle" x="294.5" y="-603.8" font-family="Helvetica,sans-Serif" font-size="14.00" fill="#000000">X[3] &lt;= 1.65</text>
<text text-anchor="middle" x="294.5" y="-588.8" font-family="Helvetica,sans-Serif" font-size="14.00" fill="#000000">gini = 0.33</text>
<text text-anchor="middle" x="294.5" y="-573.8" font-family="Helvetica,sans-Serif" font-size="14.00" fill="#000000">samples = 75</text>
<text text-anchor="middle" x="294.5" y="-558.8" font-family="Helvetica,sans-Serif" font-size="14.00" fill="#000000">value = [[75, 0]</text>
<text text-anchor="middle" x="294.5" y="-543.8" font-family="Helvetica,sans-Serif" font-size="14.00" fill="#000000">[41, 34]</text>
<text text-anchor="middle" x="294.5" y="-528.8" font-family="Helvetica,sans-Serif" font-size="14.00" fill="#000000">[34, 41]]</text>
</g>
<!-- 0&#45;&gt;2 -->
<g id="edge2" class="edge">
<title>0&#45;&gt;2</title>
<path fill="none" stroke="#000000" d="M253.3345,-654.8642C257.5295,-646.216 261.9324,-637.1394 266.2345,-628.2704"/>
<polygon fill="#000000" stroke="#000000" points="269.453,-629.6547 270.6684,-619.1298 263.1549,-626.5996 269.453,-629.6547"/>
<text text-anchor="middle" x="278.8584" y="-639.0502" font-family="Helvetica,sans-Serif" font-size="14.00" fill="#000000">False</text>
</g>
<!-- 3 -->
<g id="node4" class="node">
<title>3</title>
<polygon fill="none" stroke="#000000" points="285,-485 174,-485 174,-387 285,-387 285,-485"/>
<text text-anchor="middle" x="229.5" y="-469.8" font-family="Helvetica,sans-Serif" font-size="14.00" fill="#000000">X[2] &lt;= 4.95</text>
<text text-anchor="middle" x="229.5" y="-454.8" font-family="Helvetica,sans-Serif" font-size="14.00" fill="#000000">gini = 0.129</text>
<text text-anchor="middle" x="229.5" y="-439.8" font-family="Helvetica,sans-Serif" font-size="14.00" fill="#000000">samples = 37</text>
<text text-anchor="middle" x="229.5" y="-424.8" font-family="Helvetica,sans-Serif" font-size="14.00" fill="#000000">value = [[37, 0]</text>
<text text-anchor="middle" x="229.5" y="-409.8" font-family="Helvetica,sans-Serif" font-size="14.00" fill="#000000">[4, 33]</text>
<text text-anchor="middle" x="229.5" y="-394.8" font-family="Helvetica,sans-Serif" font-size="14.00" fill="#000000">[33, 4]]</text>
</g>
<!-- 2&#45;&gt;3 -->
<g id="edge3" class="edge">
<title>2&#45;&gt;3</title>
<path fill="none" stroke="#000000" d="M270.6655,-520.8642C266.4705,-512.216 262.0676,-503.1394 257.7655,-494.2704"/>
<polygon fill="#000000" stroke="#000000" points="260.8451,-492.5996 253.3316,-485.1298 254.547,-495.6547 260.8451,-492.5996"/>
</g>
<!-- 10 -->
<g id="node11" class="node">
<title>10</title>
<polygon fill="none" stroke="#000000" points="414,-485 303,-485 303,-387 414,-387 414,-485"/>
<text text-anchor="middle" x="358.5" y="-469.8" font-family="Helvetica,sans-Serif" font-size="14.00" fill="#000000">X[2] &lt;= 4.85</text>
<text text-anchor="middle" x="358.5" y="-454.8" font-family="Helvetica,sans-Serif" font-size="14.00" fill="#000000">gini = 0.034</text>
<text text-anchor="middle" x="358.5" y="-439.8" font-family="Helvetica,sans-Serif" font-size="14.00" fill="#000000">samples = 38</text>
<text text-anchor="middle" x="358.5" y="-424.8" font-family="Helvetica,sans-Serif" font-size="14.00" fill="#000000">value = [[38, 0]</text>
<text text-anchor="middle" x="358.5" y="-409.8" font-family="Helvetica,sans-Serif" font-size="14.00" fill="#000000">[37, 1]</text>
<text text-anchor="middle" x="358.5" y="-394.8" font-family="Helvetica,sans-Serif" font-size="14.00" fill="#000000">[1, 37]]</text>
</g>
<!-- 2&#45;&gt;10 -->
<g id="edge10" class="edge">
<title>2&#45;&gt;10</title>
<path fill="none" stroke="#000000" d="M317.9678,-520.8642C322.0983,-512.216 326.4334,-503.1394 330.6693,-494.2704"/>
<polygon fill="#000000" stroke="#000000" points="333.8834,-495.6619 335.035,-485.1298 327.5669,-492.645 333.8834,-495.6619"/>
</g>
<!-- 4 -->
<g id="node5" class="node">
<title>4</title>
<polygon fill="none" stroke="#000000" points="162,-343.5 51,-343.5 51,-260.5 162,-260.5 162,-343.5"/>
<text text-anchor="middle" x="106.5" y="-328.3" font-family="Helvetica,sans-Serif" font-size="14.00" fill="#000000">gini = 0.0</text>
<text text-anchor="middle" x="106.5" y="-313.3" font-family="Helvetica,sans-Serif" font-size="14.00" fill="#000000">samples = 32</text>
<text text-anchor="middle" x="106.5" y="-298.3" font-family="Helvetica,sans-Serif" font-size="14.00" fill="#000000">value = [[32, 0]</text>
<text text-anchor="middle" x="106.5" y="-283.3" font-family="Helvetica,sans-Serif" font-size="14.00" fill="#000000">[0, 32]</text>
<text text-anchor="middle" x="106.5" y="-268.3" font-family="Helvetica,sans-Serif" font-size="14.00" fill="#000000">[32, 0]]</text>
</g>
<!-- 3&#45;&gt;4 -->
<g id="edge4" class="edge">
<title>3&#45;&gt;4</title>
<path fill="none" stroke="#000000" d="M184.3978,-386.8642C173.7116,-375.2224 162.3129,-362.8043 151.6257,-351.1613"/>
<polygon fill="#000000" stroke="#000000" points="154.0608,-348.6383 144.7201,-343.6381 148.9039,-353.3719 154.0608,-348.6383"/>
</g>
<!-- 5 -->
<g id="node6" class="node">
<title>5</title>
<polygon fill="none" stroke="#000000" points="283,-351 180,-351 180,-253 283,-253 283,-351"/>
<text text-anchor="middle" x="231.5" y="-335.8" font-family="Helvetica,sans-Serif" font-size="14.00" fill="#000000">X[0] &lt;= 6.05</text>
<text text-anchor="middle" x="231.5" y="-320.8" font-family="Helvetica,sans-Serif" font-size="14.00" fill="#000000">gini = 0.213</text>
<text text-anchor="middle" x="231.5" y="-305.8" font-family="Helvetica,sans-Serif" font-size="14.00" fill="#000000">samples = 5</text>
<text text-anchor="middle" x="231.5" y="-290.8" font-family="Helvetica,sans-Serif" font-size="14.00" fill="#000000">value = [[5, 0]</text>
<text text-anchor="middle" x="231.5" y="-275.8" font-family="Helvetica,sans-Serif" font-size="14.00" fill="#000000">[4, 1]</text>
<text text-anchor="middle" x="231.5" y="-260.8" font-family="Helvetica,sans-Serif" font-size="14.00" fill="#000000">[1, 4]]</text>
</g>
<!-- 3&#45;&gt;5 -->
<g id="edge5" class="edge">
<title>3&#45;&gt;5</title>
<path fill="none" stroke="#000000" d="M230.2334,-386.8642C230.357,-378.5802 230.4865,-369.903 230.6136,-361.3918"/>
<polygon fill="#000000" stroke="#000000" points="234.117,-361.181 230.7667,-351.1298 227.1178,-361.0764 234.117,-361.181"/>
</g>
<!-- 6 -->
<g id="node7" class="node">
<title>6</title>
<polygon fill="none" stroke="#000000" points="163,-217 60,-217 60,-119 163,-119 163,-217"/>
<text text-anchor="middle" x="111.5" y="-201.8" font-family="Helvetica,sans-Serif" font-size="14.00" fill="#000000">X[2] &lt;= 5.05</text>
<text text-anchor="middle" x="111.5" y="-186.8" font-family="Helvetica,sans-Serif" font-size="14.00" fill="#000000">gini = 0.333</text>
<text text-anchor="middle" x="111.5" y="-171.8" font-family="Helvetica,sans-Serif" font-size="14.00" fill="#000000">samples = 2</text>
<text text-anchor="middle" x="111.5" y="-156.8" font-family="Helvetica,sans-Serif" font-size="14.00" fill="#000000">value = [[2, 0]</text>
<text text-anchor="middle" x="111.5" y="-141.8" font-family="Helvetica,sans-Serif" font-size="14.00" fill="#000000">[1, 1]</text>
<text text-anchor="middle" x="111.5" y="-126.8" font-family="Helvetica,sans-Serif" font-size="14.00" fill="#000000">[1, 1]]</text>
</g>
<!-- 5&#45;&gt;6 -->
<g id="edge6" class="edge">
<title>5&#45;&gt;6</title>
<path fill="none" stroke="#000000" d="M187.4978,-252.8642C179.264,-243.6698 170.5966,-233.9912 162.18,-224.5926"/>
<polygon fill="#000000" stroke="#000000" points="164.7754,-222.2444 155.4969,-217.1298 159.5608,-226.9143 164.7754,-222.2444"/>
</g>
<!-- 9 -->
<g id="node10" class="node">
<title>9</title>
<polygon fill="none" stroke="#000000" points="284,-209.5 181,-209.5 181,-126.5 284,-126.5 284,-209.5"/>
<text text-anchor="middle" x="232.5" y="-194.3" font-family="Helvetica,sans-Serif" font-size="14.00" fill="#000000">gini = 0.0</text>
<text text-anchor="middle" x="232.5" y="-179.3" font-family="Helvetica,sans-Serif" font-size="14.00" fill="#000000">samples = 3</text>
<text text-anchor="middle" x="232.5" y="-164.3" font-family="Helvetica,sans-Serif" font-size="14.00" fill="#000000">value = [[3, 0]</text>
<text text-anchor="middle" x="232.5" y="-149.3" font-family="Helvetica,sans-Serif" font-size="14.00" fill="#000000">[3, 0]</text>
<text text-anchor="middle" x="232.5" y="-134.3" font-family="Helvetica,sans-Serif" font-size="14.00" fill="#000000">[0, 3]]</text>
</g>
<!-- 5&#45;&gt;9 -->
<g id="edge9" class="edge">
<title>5&#45;&gt;9</title>
<path fill="none" stroke="#000000" d="M231.8667,-252.8642C231.9469,-242.1094 232.0321,-230.6921 232.1132,-219.8354"/>
<polygon fill="#000000" stroke="#000000" points="235.6144,-219.664 232.1893,-209.6381 228.6146,-219.6117 235.6144,-219.664"/>
</g>
<!-- 7 -->
<g id="node8" class="node">
<title>7</title>
<polygon fill="none" stroke="#000000" points="103,-83 0,-83 0,0 103,0 103,-83"/>
<text text-anchor="middle" x="51.5" y="-67.8" font-family="Helvetica,sans-Serif" font-size="14.00" fill="#000000">gini = 0.0</text>
<text text-anchor="middle" x="51.5" y="-52.8" font-family="Helvetica,sans-Serif" font-size="14.00" fill="#000000">samples = 1</text>
<text text-anchor="middle" x="51.5" y="-37.8" font-family="Helvetica,sans-Serif" font-size="14.00" fill="#000000">value = [[1, 0]</text>
<text text-anchor="middle" x="51.5" y="-22.8" font-family="Helvetica,sans-Serif" font-size="14.00" fill="#000000">[1, 0]</text>
<text text-anchor="middle" x="51.5" y="-7.8" font-family="Helvetica,sans-Serif" font-size="14.00" fill="#000000">[0, 1]]</text>
</g>
<!-- 6&#45;&gt;7 -->
<g id="edge7" class="edge">
<title>6&#45;&gt;7</title>
<path fill="none" stroke="#000000" d="M88.1306,-118.7296C84.0227,-110.0688 79.7402,-101.0398 75.6125,-92.3372"/>
<polygon fill="#000000" stroke="#000000" points="78.6577,-90.5902 71.2099,-83.055 72.3331,-93.5901 78.6577,-90.5902"/>
</g>
<!-- 8 -->
<g id="node9" class="node">
<title>8</title>
<polygon fill="none" stroke="#000000" points="224,-83 121,-83 121,0 224,0 224,-83"/>
<text text-anchor="middle" x="172.5" y="-67.8" font-family="Helvetica,sans-Serif" font-size="14.00" fill="#000000">gini = 0.0</text>
<text text-anchor="middle" x="172.5" y="-52.8" font-family="Helvetica,sans-Serif" font-size="14.00" fill="#000000">samples = 1</text>
<text text-anchor="middle" x="172.5" y="-37.8" font-family="Helvetica,sans-Serif" font-size="14.00" fill="#000000">value = [[1, 0]</text>
<text text-anchor="middle" x="172.5" y="-22.8" font-family="Helvetica,sans-Serif" font-size="14.00" fill="#000000">[0, 1]</text>
<text text-anchor="middle" x="172.5" y="-7.8" font-family="Helvetica,sans-Serif" font-size="14.00" fill="#000000">[1, 0]]</text>
</g>
<!-- 6&#45;&gt;8 -->
<g id="edge8" class="edge">
<title>6&#45;&gt;8</title>
<path fill="none" stroke="#000000" d="M135.2589,-118.7296C139.4352,-110.0688 143.7891,-101.0398 147.9856,-92.3372"/>
<polygon fill="#000000" stroke="#000000" points="151.2707,-93.5827 152.4616,-83.055 144.9655,-90.5422 151.2707,-93.5827"/>
</g>
<!-- 11 -->
<g id="node12" class="node">
<title>11</title>
<polygon fill="none" stroke="#000000" points="408,-351 305,-351 305,-253 408,-253 408,-351"/>
<text text-anchor="middle" x="356.5" y="-335.8" font-family="Helvetica,sans-Serif" font-size="14.00" fill="#000000">X[1] &lt;= 3.1</text>
<text text-anchor="middle" x="356.5" y="-320.8" font-family="Helvetica,sans-Serif" font-size="14.00" fill="#000000">gini = 0.25</text>
<text text-anchor="middle" x="356.5" y="-305.8" font-family="Helvetica,sans-Serif" font-size="14.00" fill="#000000">samples = 4</text>
<text text-anchor="middle" x="356.5" y="-290.8" font-family="Helvetica,sans-Serif" font-size="14.00" fill="#000000">value = [[4, 0]</text>
<text text-anchor="middle" x="356.5" y="-275.8" font-family="Helvetica,sans-Serif" font-size="14.00" fill="#000000">[3, 1]</text>
<text text-anchor="middle" x="356.5" y="-260.8" font-family="Helvetica,sans-Serif" font-size="14.00" fill="#000000">[1, 3]]</text>
</g>
<!-- 10&#45;&gt;11 -->
<g id="edge11" class="edge">
<title>10&#45;&gt;11</title>
<path fill="none" stroke="#000000" d="M357.7666,-386.8642C357.643,-378.5802 357.5135,-369.903 357.3864,-361.3918"/>
<polygon fill="#000000" stroke="#000000" points="360.8822,-361.0764 357.2333,-351.1298 353.883,-361.181 360.8822,-361.0764"/>
</g>
<!-- 14 -->
<g id="node15" class="node">
<title>14</title>
<polygon fill="none" stroke="#000000" points="537,-343.5 426,-343.5 426,-260.5 537,-260.5 537,-343.5"/>
<text text-anchor="middle" x="481.5" y="-328.3" font-family="Helvetica,sans-Serif" font-size="14.00" fill="#000000">gini = 0.0</text>
<text text-anchor="middle" x="481.5" y="-313.3" font-family="Helvetica,sans-Serif" font-size="14.00" fill="#000000">samples = 34</text>
<text text-anchor="middle" x="481.5" y="-298.3" font-family="Helvetica,sans-Serif" font-size="14.00" fill="#000000">value = [[34, 0]</text>
<text text-anchor="middle" x="481.5" y="-283.3" font-family="Helvetica,sans-Serif" font-size="14.00" fill="#000000">[34, 0]</text>
<text text-anchor="middle" x="481.5" y="-268.3" font-family="Helvetica,sans-Serif" font-size="14.00" fill="#000000">[0, 34]]</text>
</g>
<!-- 10&#45;&gt;14 -->
<g id="edge14" class="edge">
<title>10&#45;&gt;14</title>
<path fill="none" stroke="#000000" d="M403.6022,-386.8642C414.2884,-375.2224 425.6871,-362.8043 436.3743,-351.1613"/>
<polygon fill="#000000" stroke="#000000" points="439.0961,-353.3719 443.2799,-343.6381 433.9392,-348.6383 439.0961,-353.3719"/>
</g>
<!-- 12 -->
<g id="node13" class="node">
<title>12</title>
<polygon fill="none" stroke="#000000" points="407,-209.5 304,-209.5 304,-126.5 407,-126.5 407,-209.5"/>
<text text-anchor="middle" x="355.5" y="-194.3" font-family="Helvetica,sans-Serif" font-size="14.00" fill="#000000">gini = 0.0</text>
<text text-anchor="middle" x="355.5" y="-179.3" font-family="Helvetica,sans-Serif" font-size="14.00" fill="#000000">samples = 3</text>
<text text-anchor="middle" x="355.5" y="-164.3" font-family="Helvetica,sans-Serif" font-size="14.00" fill="#000000">value = [[3, 0]</text>
<text text-anchor="middle" x="355.5" y="-149.3" font-family="Helvetica,sans-Serif" font-size="14.00" fill="#000000">[3, 0]</text>
<text text-anchor="middle" x="355.5" y="-134.3" font-family="Helvetica,sans-Serif" font-size="14.00" fill="#000000">[0, 3]]</text>
</g>
<!-- 11&#45;&gt;12 -->
<g id="edge12" class="edge">
<title>11&#45;&gt;12</title>
<path fill="none" stroke="#000000" d="M356.1333,-252.8642C356.0531,-242.1094 355.9679,-230.6921 355.8868,-219.8354"/>
<polygon fill="#000000" stroke="#000000" points="359.3854,-219.6117 355.8107,-209.6381 352.3856,-219.664 359.3854,-219.6117"/>
</g>
<!-- 13 -->
<g id="node14" class="node">
<title>13</title>
<polygon fill="none" stroke="#000000" points="528,-209.5 425,-209.5 425,-126.5 528,-126.5 528,-209.5"/>
<text text-anchor="middle" x="476.5" y="-194.3" font-family="Helvetica,sans-Serif" font-size="14.00" fill="#000000">gini = 0.0</text>
<text text-anchor="middle" x="476.5" y="-179.3" font-family="Helvetica,sans-Serif" font-size="14.00" fill="#000000">samples = 1</text>
<text text-anchor="middle" x="476.5" y="-164.3" font-family="Helvetica,sans-Serif" font-size="14.00" fill="#000000">value = [[1, 0]</text>
<text text-anchor="middle" x="476.5" y="-149.3" font-family="Helvetica,sans-Serif" font-size="14.00" fill="#000000">[0, 1]</text>
<text text-anchor="middle" x="476.5" y="-134.3" font-family="Helvetica,sans-Serif" font-size="14.00" fill="#000000">[1, 0]]</text>
</g>
<!-- 11&#45;&gt;13 -->
<g id="edge13" class="edge">
<title>11&#45;&gt;13</title>
<path fill="none" stroke="#000000" d="M400.5022,-252.8642C410.9277,-241.2224 422.0484,-228.8043 432.4749,-217.1613"/>
<polygon fill="#000000" stroke="#000000" points="435.1482,-219.4226 439.2121,-209.6381 429.9336,-214.7527 435.1482,-219.4226"/>
</g>
</g>
</svg>
