<?xml version="1.0" encoding="UTF-8" standalone="no"?>
<!DOCTYPE svg PUBLIC "-//W3C//DTD SVG 1.1//EN"
 "http://www.w3.org/Graphics/SVG/1.1/DTD/svg11.dtd">
<!-- Generated by graphviz version 2.40.1 (20161225.0304)
 -->
<!-- Title: Tree Pages: 1 -->
<svg width="823pt" height="581pt"
 viewBox="0.00 0.00 823.00 581.00" xmlns="http://www.w3.org/2000/svg" xmlns:xlink="http://www.w3.org/1999/xlink">
<g id="graph0" class="graph" transform="scale(1 1) rotate(0) translate(4 577)">
<title>Tree</title>
<polygon fill="#ffffff" stroke="transparent" points="-4,4 -4,-577 819,-577 819,4 -4,4"/>
<!-- 0 -->
<g id="node1" class="node">
<title>0</title>
<polygon fill="none" stroke="#000000" points="541.5,-573 423.5,-573 423.5,-505 541.5,-505 541.5,-573"/>
<text text-anchor="middle" x="482.5" y="-557.8" font-family="Helvetica,sans-Serif" font-size="14.00" fill="#000000">X[1] &lt;= 91.5</text>
<text text-anchor="middle" x="482.5" y="-542.8" font-family="Helvetica,sans-Serif" font-size="14.00" fill="#000000">entropy = 0.988</text>
<text text-anchor="middle" x="482.5" y="-527.8" font-family="Helvetica,sans-Serif" font-size="14.00" fill="#000000">samples = 92</text>
<text text-anchor="middle" x="482.5" y="-512.8" font-family="Helvetica,sans-Serif" font-size="14.00" fill="#000000">value = [40, 52]</text>
</g>
<!-- 1 -->
<g id="node2" class="node">
<title>1</title>
<polygon fill="none" stroke="#000000" points="473.5,-469 357.5,-469 357.5,-401 473.5,-401 473.5,-469"/>
<text text-anchor="middle" x="415.5" y="-453.8" font-family="Helvetica,sans-Serif" font-size="14.00" fill="#000000">X[0] &lt;= 31.124</text>
<text text-anchor="middle" x="415.5" y="-438.8" font-family="Helvetica,sans-Serif" font-size="14.00" fill="#000000">entropy = 0.9</text>
<text text-anchor="middle" x="415.5" y="-423.8" font-family="Helvetica,sans-Serif" font-size="14.00" fill="#000000">samples = 38</text>
<text text-anchor="middle" x="415.5" y="-408.8" font-family="Helvetica,sans-Serif" font-size="14.00" fill="#000000">value = [26, 12]</text>
</g>
<!-- 0&#45;&gt;1 -->
<g id="edge1" class="edge">
<title>0&#45;&gt;1</title>
<path fill="none" stroke="#000000" d="M460.5617,-504.9465C454.951,-496.2373 448.8471,-486.7626 442.9958,-477.6801"/>
<polygon fill="#000000" stroke="#000000" points="445.8457,-475.641 437.4876,-469.13 439.9611,-479.4321 445.8457,-475.641"/>
<text text-anchor="middle" x="432.2006" y="-489.8646" font-family="Helvetica,sans-Serif" font-size="14.00" fill="#000000">True</text>
</g>
<!-- 12 -->
<g id="node13" class="node">
<title>12</title>
<polygon fill="none" stroke="#000000" points="609.5,-469 491.5,-469 491.5,-401 609.5,-401 609.5,-469"/>
<text text-anchor="middle" x="550.5" y="-453.8" font-family="Helvetica,sans-Serif" font-size="14.00" fill="#000000">X[4] &lt;= 7.24</text>
<text text-anchor="middle" x="550.5" y="-438.8" font-family="Helvetica,sans-Serif" font-size="14.00" fill="#000000">entropy = 0.826</text>
<text text-anchor="middle" x="550.5" y="-423.8" font-family="Helvetica,sans-Serif" font-size="14.00" fill="#000000">samples = 54</text>
<text text-anchor="middle" x="550.5" y="-408.8" font-family="Helvetica,sans-Serif" font-size="14.00" fill="#000000">value = [14, 40]</text>
</g>
<!-- 0&#45;&gt;12 -->
<g id="edge12" class="edge">
<title>0&#45;&gt;12</title>
<path fill="none" stroke="#000000" d="M504.7657,-504.9465C510.4602,-496.2373 516.6552,-486.7626 522.5938,-477.6801"/>
<polygon fill="#000000" stroke="#000000" points="525.6411,-479.4151 528.1842,-469.13 519.7823,-475.5843 525.6411,-479.4151"/>
<text text-anchor="middle" x="533.3058" y="-489.8998" font-family="Helvetica,sans-Serif" font-size="14.00" fill="#000000">False</text>
</g>
<!-- 2 -->
<g id="node3" class="node">
<title>2</title>
<polygon fill="none" stroke="#000000" points="347.5,-365 229.5,-365 229.5,-297 347.5,-297 347.5,-365"/>
<text text-anchor="middle" x="288.5" y="-349.8" font-family="Helvetica,sans-Serif" font-size="14.00" fill="#000000">X[6] &lt;= 13.248</text>
<text text-anchor="middle" x="288.5" y="-334.8" font-family="Helvetica,sans-Serif" font-size="14.00" fill="#000000">entropy = 0.991</text>
<text text-anchor="middle" x="288.5" y="-319.8" font-family="Helvetica,sans-Serif" font-size="14.00" fill="#000000">samples = 27</text>
<text text-anchor="middle" x="288.5" y="-304.8" font-family="Helvetica,sans-Serif" font-size="14.00" fill="#000000">value = [15, 12]</text>
</g>
<!-- 1&#45;&gt;2 -->
<g id="edge2" class="edge">
<title>1&#45;&gt;2</title>
<path fill="none" stroke="#000000" d="M373.9155,-400.9465C362.5127,-391.6088 350.0353,-381.3911 338.2257,-371.7203"/>
<polygon fill="#000000" stroke="#000000" points="340.1324,-368.7578 330.178,-365.13 335.6974,-374.1736 340.1324,-368.7578"/>
</g>
<!-- 11 -->
<g id="node12" class="node">
<title>11</title>
<polygon fill="none" stroke="#000000" points="473,-357.5 366,-357.5 366,-304.5 473,-304.5 473,-357.5"/>
<text text-anchor="middle" x="419.5" y="-342.3" font-family="Helvetica,sans-Serif" font-size="14.00" fill="#000000">entropy = 0.0</text>
<text text-anchor="middle" x="419.5" y="-327.3" font-family="Helvetica,sans-Serif" font-size="14.00" fill="#000000">samples = 11</text>
<text text-anchor="middle" x="419.5" y="-312.3" font-family="Helvetica,sans-Serif" font-size="14.00" fill="#000000">value = [11, 0]</text>
</g>
<!-- 1&#45;&gt;11 -->
<g id="edge11" class="edge">
<title>1&#45;&gt;11</title>
<path fill="none" stroke="#000000" d="M416.8097,-400.9465C417.2207,-390.2621 417.6759,-378.4254 418.0933,-367.5742"/>
<polygon fill="#000000" stroke="#000000" points="421.5921,-367.6693 418.4791,-357.5422 414.5973,-367.4002 421.5921,-367.6693"/>
</g>
<!-- 3 -->
<g id="node4" class="node">
<title>3</title>
<polygon fill="none" stroke="#000000" points="235.5,-261 117.5,-261 117.5,-193 235.5,-193 235.5,-261"/>
<text text-anchor="middle" x="176.5" y="-245.8" font-family="Helvetica,sans-Serif" font-size="14.00" fill="#000000">X[2] &lt;= 3.793</text>
<text text-anchor="middle" x="176.5" y="-230.8" font-family="Helvetica,sans-Serif" font-size="14.00" fill="#000000">entropy = 0.672</text>
<text text-anchor="middle" x="176.5" y="-215.8" font-family="Helvetica,sans-Serif" font-size="14.00" fill="#000000">samples = 17</text>
<text text-anchor="middle" x="176.5" y="-200.8" font-family="Helvetica,sans-Serif" font-size="14.00" fill="#000000">value = [14, 3]</text>
</g>
<!-- 2&#45;&gt;3 -->
<g id="edge3" class="edge">
<title>2&#45;&gt;3</title>
<path fill="none" stroke="#000000" d="M251.827,-296.9465C241.8677,-287.6986 230.9789,-277.5876 220.6532,-267.9994"/>
<polygon fill="#000000" stroke="#000000" points="222.9649,-265.3698 213.2554,-261.13 218.2018,-270.4993 222.9649,-265.3698"/>
</g>
<!-- 8 -->
<g id="node9" class="node">
<title>8</title>
<polygon fill="none" stroke="#000000" points="371.5,-261 253.5,-261 253.5,-193 371.5,-193 371.5,-261"/>
<text text-anchor="middle" x="312.5" y="-245.8" font-family="Helvetica,sans-Serif" font-size="14.00" fill="#000000">X[4] &lt;= 28.041</text>
<text text-anchor="middle" x="312.5" y="-230.8" font-family="Helvetica,sans-Serif" font-size="14.00" fill="#000000">entropy = 0.469</text>
<text text-anchor="middle" x="312.5" y="-215.8" font-family="Helvetica,sans-Serif" font-size="14.00" fill="#000000">samples = 10</text>
<text text-anchor="middle" x="312.5" y="-200.8" font-family="Helvetica,sans-Serif" font-size="14.00" fill="#000000">value = [1, 9]</text>
</g>
<!-- 2&#45;&gt;8 -->
<g id="edge8" class="edge">
<title>2&#45;&gt;8</title>
<path fill="none" stroke="#000000" d="M296.3585,-296.9465C298.2647,-288.6863 300.3298,-279.7374 302.326,-271.0875"/>
<polygon fill="#000000" stroke="#000000" points="305.7855,-271.6609 304.6238,-261.13 298.9648,-270.0869 305.7855,-271.6609"/>
</g>
<!-- 4 -->
<g id="node5" class="node">
<title>4</title>
<polygon fill="none" stroke="#000000" points="101,-149.5 0,-149.5 0,-96.5 101,-96.5 101,-149.5"/>
<text text-anchor="middle" x="50.5" y="-134.3" font-family="Helvetica,sans-Serif" font-size="14.00" fill="#000000">entropy = 1.0</text>
<text text-anchor="middle" x="50.5" y="-119.3" font-family="Helvetica,sans-Serif" font-size="14.00" fill="#000000">samples = 4</text>
<text text-anchor="middle" x="50.5" y="-104.3" font-family="Helvetica,sans-Serif" font-size="14.00" fill="#000000">value = [2, 2]</text>
</g>
<!-- 3&#45;&gt;4 -->
<g id="edge4" class="edge">
<title>3&#45;&gt;4</title>
<path fill="none" stroke="#000000" d="M135.2429,-192.9465C120.8303,-181.0504 104.6873,-167.726 90.3883,-155.9237"/>
<polygon fill="#000000" stroke="#000000" points="92.5971,-153.2086 82.6569,-149.5422 88.1411,-158.6071 92.5971,-153.2086"/>
</g>
<!-- 5 -->
<g id="node6" class="node">
<title>5</title>
<polygon fill="none" stroke="#000000" points="237.5,-157 119.5,-157 119.5,-89 237.5,-89 237.5,-157"/>
<text text-anchor="middle" x="178.5" y="-141.8" font-family="Helvetica,sans-Serif" font-size="14.00" fill="#000000">X[2] &lt;= 6.83</text>
<text text-anchor="middle" x="178.5" y="-126.8" font-family="Helvetica,sans-Serif" font-size="14.00" fill="#000000">entropy = 0.391</text>
<text text-anchor="middle" x="178.5" y="-111.8" font-family="Helvetica,sans-Serif" font-size="14.00" fill="#000000">samples = 13</text>
<text text-anchor="middle" x="178.5" y="-96.8" font-family="Helvetica,sans-Serif" font-size="14.00" fill="#000000">value = [12, 1]</text>
</g>
<!-- 3&#45;&gt;5 -->
<g id="edge5" class="edge">
<title>3&#45;&gt;5</title>
<path fill="none" stroke="#000000" d="M177.1549,-192.9465C177.312,-184.776 177.4821,-175.9318 177.6467,-167.3697"/>
<polygon fill="#000000" stroke="#000000" points="181.1506,-167.1955 177.8437,-157.13 174.1519,-167.0608 181.1506,-167.1955"/>
</g>
<!-- 6 -->
<g id="node7" class="node">
<title>6</title>
<polygon fill="none" stroke="#000000" points="216,-53 109,-53 109,0 216,0 216,-53"/>
<text text-anchor="middle" x="162.5" y="-37.8" font-family="Helvetica,sans-Serif" font-size="14.00" fill="#000000">entropy = 0.0</text>
<text text-anchor="middle" x="162.5" y="-22.8" font-family="Helvetica,sans-Serif" font-size="14.00" fill="#000000">samples = 10</text>
<text text-anchor="middle" x="162.5" y="-7.8" font-family="Helvetica,sans-Serif" font-size="14.00" fill="#000000">value = [10, 0]</text>
</g>
<!-- 5&#45;&gt;6 -->
<g id="edge6" class="edge">
<title>5&#45;&gt;6</title>
<path fill="none" stroke="#000000" d="M172.859,-88.9777C171.4774,-80.6449 169.9927,-71.6903 168.591,-63.2364"/>
<polygon fill="#000000" stroke="#000000" points="172.0236,-62.5413 166.935,-53.2485 165.1179,-63.6863 172.0236,-62.5413"/>
</g>
<!-- 7 -->
<g id="node8" class="node">
<title>7</title>
<polygon fill="none" stroke="#000000" points="352.5,-53 234.5,-53 234.5,0 352.5,0 352.5,-53"/>
<text text-anchor="middle" x="293.5" y="-37.8" font-family="Helvetica,sans-Serif" font-size="14.00" fill="#000000">entropy = 0.918</text>
<text text-anchor="middle" x="293.5" y="-22.8" font-family="Helvetica,sans-Serif" font-size="14.00" fill="#000000">samples = 3</text>
<text text-anchor="middle" x="293.5" y="-7.8" font-family="Helvetica,sans-Serif" font-size="14.00" fill="#000000">value = [2, 1]</text>
</g>
<!-- 5&#45;&gt;7 -->
<g id="edge7" class="edge">
<title>5&#45;&gt;7</title>
<path fill="none" stroke="#000000" d="M219.0447,-88.9777C230.2845,-79.546 242.4736,-69.3178 253.6721,-59.9208"/>
<polygon fill="#000000" stroke="#000000" points="256.213,-62.3576 261.6236,-53.2485 251.7134,-56.9954 256.213,-62.3576"/>
</g>
<!-- 9 -->
<g id="node10" class="node">
<title>9</title>
<polygon fill="none" stroke="#000000" points="361,-149.5 260,-149.5 260,-96.5 361,-96.5 361,-149.5"/>
<text text-anchor="middle" x="310.5" y="-134.3" font-family="Helvetica,sans-Serif" font-size="14.00" fill="#000000">entropy = 0.0</text>
<text text-anchor="middle" x="310.5" y="-119.3" font-family="Helvetica,sans-Serif" font-size="14.00" fill="#000000">samples = 7</text>
<text text-anchor="middle" x="310.5" y="-104.3" font-family="Helvetica,sans-Serif" font-size="14.00" fill="#000000">value = [0, 7]</text>
</g>
<!-- 8&#45;&gt;9 -->
<g id="edge9" class="edge">
<title>8&#45;&gt;9</title>
<path fill="none" stroke="#000000" d="M311.8451,-192.9465C311.6397,-182.2621 311.412,-170.4254 311.2034,-159.5742"/>
<polygon fill="#000000" stroke="#000000" points="314.7021,-159.473 311.0104,-149.5422 307.7034,-159.6076 314.7021,-159.473"/>
</g>
<!-- 10 -->
<g id="node11" class="node">
<title>10</title>
<polygon fill="none" stroke="#000000" points="497.5,-149.5 379.5,-149.5 379.5,-96.5 497.5,-96.5 497.5,-149.5"/>
<text text-anchor="middle" x="438.5" y="-134.3" font-family="Helvetica,sans-Serif" font-size="14.00" fill="#000000">entropy = 0.918</text>
<text text-anchor="middle" x="438.5" y="-119.3" font-family="Helvetica,sans-Serif" font-size="14.00" fill="#000000">samples = 3</text>
<text text-anchor="middle" x="438.5" y="-104.3" font-family="Helvetica,sans-Serif" font-size="14.00" fill="#000000">value = [1, 2]</text>
</g>
<!-- 8&#45;&gt;10 -->
<g id="edge10" class="edge">
<title>8&#45;&gt;10</title>
<path fill="none" stroke="#000000" d="M353.7571,-192.9465C368.1697,-181.0504 384.3127,-167.726 398.6117,-155.9237"/>
<polygon fill="#000000" stroke="#000000" points="400.8589,-158.6071 406.3431,-149.5422 396.4029,-153.2086 400.8589,-158.6071"/>
</g>
<!-- 13 -->
<g id="node14" class="node">
<title>13</title>
<polygon fill="none" stroke="#000000" points="598,-357.5 497,-357.5 497,-304.5 598,-304.5 598,-357.5"/>
<text text-anchor="middle" x="547.5" y="-342.3" font-family="Helvetica,sans-Serif" font-size="14.00" fill="#000000">entropy = 0.0</text>
<text text-anchor="middle" x="547.5" y="-327.3" font-family="Helvetica,sans-Serif" font-size="14.00" fill="#000000">samples = 3</text>
<text text-anchor="middle" x="547.5" y="-312.3" font-family="Helvetica,sans-Serif" font-size="14.00" fill="#000000">value = [3, 0]</text>
</g>
<!-- 12&#45;&gt;13 -->
<g id="edge13" class="edge">
<title>12&#45;&gt;13</title>
<path fill="none" stroke="#000000" d="M549.5177,-400.9465C549.2095,-390.2621 548.868,-378.4254 548.555,-367.5742"/>
<polygon fill="#000000" stroke="#000000" points="552.0526,-367.4371 548.2656,-357.5422 545.0555,-367.639 552.0526,-367.4371"/>
</g>
<!-- 14 -->
<g id="node15" class="node">
<title>14</title>
<polygon fill="none" stroke="#000000" points="734.5,-365 616.5,-365 616.5,-297 734.5,-297 734.5,-365"/>
<text text-anchor="middle" x="675.5" y="-349.8" font-family="Helvetica,sans-Serif" font-size="14.00" fill="#000000">X[1] &lt;= 111.0</text>
<text text-anchor="middle" x="675.5" y="-334.8" font-family="Helvetica,sans-Serif" font-size="14.00" fill="#000000">entropy = 0.752</text>
<text text-anchor="middle" x="675.5" y="-319.8" font-family="Helvetica,sans-Serif" font-size="14.00" fill="#000000">samples = 51</text>
<text text-anchor="middle" x="675.5" y="-304.8" font-family="Helvetica,sans-Serif" font-size="14.00" fill="#000000">value = [11, 40]</text>
</g>
<!-- 12&#45;&gt;14 -->
<g id="edge14" class="edge">
<title>12&#45;&gt;14</title>
<path fill="none" stroke="#000000" d="M591.4297,-400.9465C602.6528,-391.6088 614.9337,-381.3911 626.5573,-371.7203"/>
<polygon fill="#000000" stroke="#000000" points="629.0296,-374.2164 634.4784,-365.13 624.5526,-368.8353 629.0296,-374.2164"/>
</g>
<!-- 15 -->
<g id="node16" class="node">
<title>15</title>
<polygon fill="none" stroke="#000000" points="689.5,-261 571.5,-261 571.5,-193 689.5,-193 689.5,-261"/>
<text text-anchor="middle" x="630.5" y="-245.8" font-family="Helvetica,sans-Serif" font-size="14.00" fill="#000000">X[4] &lt;= 63.703</text>
<text text-anchor="middle" x="630.5" y="-230.8" font-family="Helvetica,sans-Serif" font-size="14.00" fill="#000000">entropy = 0.839</text>
<text text-anchor="middle" x="630.5" y="-215.8" font-family="Helvetica,sans-Serif" font-size="14.00" fill="#000000">samples = 41</text>
<text text-anchor="middle" x="630.5" y="-200.8" font-family="Helvetica,sans-Serif" font-size="14.00" fill="#000000">value = [11, 30]</text>
</g>
<!-- 14&#45;&gt;15 -->
<g id="edge15" class="edge">
<title>14&#45;&gt;15</title>
<path fill="none" stroke="#000000" d="M660.7653,-296.9465C657.1135,-288.5067 653.1506,-279.3479 649.3324,-270.5239"/>
<polygon fill="#000000" stroke="#000000" points="652.4512,-268.9178 645.2678,-261.13 646.0268,-271.6976 652.4512,-268.9178"/>
</g>
<!-- 20 -->
<g id="node21" class="node">
<title>20</title>
<polygon fill="none" stroke="#000000" points="815,-253.5 708,-253.5 708,-200.5 815,-200.5 815,-253.5"/>
<text text-anchor="middle" x="761.5" y="-238.3" font-family="Helvetica,sans-Serif" font-size="14.00" fill="#000000">entropy = 0.0</text>
<text text-anchor="middle" x="761.5" y="-223.3" font-family="Helvetica,sans-Serif" font-size="14.00" fill="#000000">samples = 10</text>
<text text-anchor="middle" x="761.5" y="-208.3" font-family="Helvetica,sans-Serif" font-size="14.00" fill="#000000">value = [0, 10]</text>
</g>
<!-- 14&#45;&gt;20 -->
<g id="edge20" class="edge">
<title>14&#45;&gt;20</title>
<path fill="none" stroke="#000000" d="M703.6596,-296.9465C713.0413,-285.6012 723.4973,-272.9567 732.9113,-261.5724"/>
<polygon fill="#000000" stroke="#000000" points="735.8763,-263.4791 739.5517,-253.5422 730.4817,-259.0182 735.8763,-263.4791"/>
</g>
<!-- 16 -->
<g id="node17" class="node">
<title>16</title>
<polygon fill="none" stroke="#000000" points="665.5,-157 547.5,-157 547.5,-89 665.5,-89 665.5,-157"/>
<text text-anchor="middle" x="606.5" y="-141.8" font-family="Helvetica,sans-Serif" font-size="14.00" fill="#000000">X[6] &lt;= 20.361</text>
<text text-anchor="middle" x="606.5" y="-126.8" font-family="Helvetica,sans-Serif" font-size="14.00" fill="#000000">entropy = 0.742</text>
<text text-anchor="middle" x="606.5" y="-111.8" font-family="Helvetica,sans-Serif" font-size="14.00" fill="#000000">samples = 38</text>
<text text-anchor="middle" x="606.5" y="-96.8" font-family="Helvetica,sans-Serif" font-size="14.00" fill="#000000">value = [8, 30]</text>
</g>
<!-- 15&#45;&gt;16 -->
<g id="edge16" class="edge">
<title>15&#45;&gt;16</title>
<path fill="none" stroke="#000000" d="M622.6415,-192.9465C620.7353,-184.6863 618.6702,-175.7374 616.674,-167.0875"/>
<polygon fill="#000000" stroke="#000000" points="620.0352,-166.0869 614.3762,-157.13 613.2145,-167.6609 620.0352,-166.0869"/>
</g>
<!-- 19 -->
<g id="node20" class="node">
<title>19</title>
<polygon fill="none" stroke="#000000" points="785,-149.5 684,-149.5 684,-96.5 785,-96.5 785,-149.5"/>
<text text-anchor="middle" x="734.5" y="-134.3" font-family="Helvetica,sans-Serif" font-size="14.00" fill="#000000">entropy = 0.0</text>
<text text-anchor="middle" x="734.5" y="-119.3" font-family="Helvetica,sans-Serif" font-size="14.00" fill="#000000">samples = 3</text>
<text text-anchor="middle" x="734.5" y="-104.3" font-family="Helvetica,sans-Serif" font-size="14.00" fill="#000000">value = [3, 0]</text>
</g>
<!-- 15&#45;&gt;19 -->
<g id="edge19" class="edge">
<title>15&#45;&gt;19</title>
<path fill="none" stroke="#000000" d="M664.5535,-192.9465C676.1191,-181.3809 689.0348,-168.4652 700.5893,-156.9107"/>
<polygon fill="#000000" stroke="#000000" points="703.3616,-159.0881 707.9578,-149.5422 698.4119,-154.1384 703.3616,-159.0881"/>
</g>
<!-- 17 -->
<g id="node18" class="node">
<title>17</title>
<polygon fill="none" stroke="#000000" points="550.5,-53 432.5,-53 432.5,0 550.5,0 550.5,-53"/>
<text text-anchor="middle" x="491.5" y="-37.8" font-family="Helvetica,sans-Serif" font-size="14.00" fill="#000000">entropy = 0.863</text>
<text text-anchor="middle" x="491.5" y="-22.8" font-family="Helvetica,sans-Serif" font-size="14.00" fill="#000000">samples = 28</text>
<text text-anchor="middle" x="491.5" y="-7.8" font-family="Helvetica,sans-Serif" font-size="14.00" fill="#000000">value = [8, 20]</text>
</g>
<!-- 16&#45;&gt;17 -->
<g id="edge17" class="edge">
<title>16&#45;&gt;17</title>
<path fill="none" stroke="#000000" d="M565.9553,-88.9777C554.7155,-79.546 542.5264,-69.3178 531.3279,-59.9208"/>
<polygon fill="#000000" stroke="#000000" points="533.2866,-56.9954 523.3764,-53.2485 528.787,-62.3576 533.2866,-56.9954"/>
</g>
<!-- 18 -->
<g id="node19" class="node">
<title>18</title>
<polygon fill="none" stroke="#000000" points="676,-53 569,-53 569,0 676,0 676,-53"/>
<text text-anchor="middle" x="622.5" y="-37.8" font-family="Helvetica,sans-Serif" font-size="14.00" fill="#000000">entropy = 0.0</text>
<text text-anchor="middle" x="622.5" y="-22.8" font-family="Helvetica,sans-Serif" font-size="14.00" fill="#000000">samples = 10</text>
<text text-anchor="middle" x="622.5" y="-7.8" font-family="Helvetica,sans-Serif" font-size="14.00" fill="#000000">value = [0, 10]</text>
</g>
<!-- 16&#45;&gt;18 -->
<g id="edge18" class="edge">
<title>16&#45;&gt;18</title>
<path fill="none" stroke="#000000" d="M612.141,-88.9777C613.5226,-80.6449 615.0073,-71.6903 616.409,-63.2364"/>
<polygon fill="#000000" stroke="#000000" points="619.8821,-63.6863 618.065,-53.2485 612.9764,-62.5413 619.8821,-63.6863"/>
</g>
</g>
</svg>
