<?xml version="1.0" encoding="UTF-8" standalone="no"?>
<!DOCTYPE svg PUBLIC "-//W3C//DTD SVG 1.1//EN"
 "http://www.w3.org/Graphics/SVG/1.1/DTD/svg11.dtd">
<!-- Generated by graphviz version 2.40.1 (20161225.0304)
 -->
<!-- Title: Tree Pages: 1 -->
<svg width="494pt" height="761pt"
 viewBox="0.00 0.00 494.00 761.00" xmlns="http://www.w3.org/2000/svg" xmlns:xlink="http://www.w3.org/1999/xlink">
<g id="graph0" class="graph" transform="scale(1 1) rotate(0) translate(4 757)">
<title>Tree</title>
<polygon fill="#ffffff" stroke="transparent" points="-4,4 -4,-757 490,-757 490,4 -4,4"/>
<!-- 0 -->
<g id="node1" class="node">
<title>0</title>
<polygon fill="none" stroke="#000000" points="238,-753 119,-753 119,-655 238,-655 238,-753"/>
<text text-anchor="middle" x="178.5" y="-737.8" font-family="Helvetica,sans-Serif" font-size="14.00" fill="#000000">X[2] &lt;= 2.6</text>
<text text-anchor="middle" x="178.5" y="-722.8" font-family="Helvetica,sans-Serif" font-size="14.00" fill="#000000">gini = 0.443</text>
<text text-anchor="middle" x="178.5" y="-707.8" font-family="Helvetica,sans-Serif" font-size="14.00" fill="#000000">samples = 112</text>
<text text-anchor="middle" x="178.5" y="-692.8" font-family="Helvetica,sans-Serif" font-size="14.00" fill="#000000">value = [[75, 37]</text>
<text text-anchor="middle" x="178.5" y="-677.8" font-family="Helvetica,sans-Serif" font-size="14.00" fill="#000000">[78, 34]</text>
<text text-anchor="middle" x="178.5" y="-662.8" font-family="Helvetica,sans-Serif" font-size="14.00" fill="#000000">[71, 41]]</text>
</g>
<!-- 1 -->
<g id="node2" class="node">
<title>1</title>
<polygon fill="none" stroke="#000000" points="170,-611.5 59,-611.5 59,-528.5 170,-528.5 170,-611.5"/>
<text text-anchor="middle" x="114.5" y="-596.3" font-family="Helvetica,sans-Serif" font-size="14.00" fill="#000000">gini = 0.0</text>
<text text-anchor="middle" x="114.5" y="-581.3" font-family="Helvetica,sans-Serif" font-size="14.00" fill="#000000">samples = 37</text>
<text text-anchor="middle" x="114.5" y="-566.3" font-family="Helvetica,sans-Serif" font-size="14.00" fill="#000000">value = [[0, 37]</text>
<text text-anchor="middle" x="114.5" y="-551.3" font-family="Helvetica,sans-Serif" font-size="14.00" fill="#000000">[37, 0]</text>
<text text-anchor="middle" x="114.5" y="-536.3" font-family="Helvetica,sans-Serif" font-size="14.00" fill="#000000">[37, 0]]</text>
</g>
<!-- 0&#45;&gt;1 -->
<g id="edge1" class="edge">
<title>0&#45;&gt;1</title>
<path fill="none" stroke="#000000" d="M155.0322,-654.8642C149.7367,-643.7768 144.1049,-631.9852 138.7769,-620.8297"/>
<polygon fill="#000000" stroke="#000000" points="141.855,-619.1533 134.3869,-611.6381 135.5384,-622.1702 141.855,-619.1533"/>
<text text-anchor="middle" x="126.0539" y="-631.5085" font-family="Helvetica,sans-Serif" font-size="14.00" fill="#000000">True</text>
</g>
<!-- 2 -->
<g id="node3" class="node">
<title>2</title>
<polygon fill="none" stroke="#000000" points="299,-619 188,-619 188,-521 299,-521 299,-619"/>
<text text-anchor="middle" x="243.5" y="-603.8" font-family="Helvetica,sans-Serif" font-size="14.00" fill="#000000">X[3] &lt;= 1.65</text>
<text text-anchor="middle" x="243.5" y="-588.8" font-family="Helvetica,sans-Serif" font-size="14.00" fill="#000000">gini = 0.33</text>
<text text-anchor="middle" x="243.5" y="-573.8" font-family="Helvetica,sans-Serif" font-size="14.00" fill="#000000">samples = 75</text>
<text text-anchor="middle" x="243.5" y="-558.8" font-family="Helvetica,sans-Serif" font-size="14.00" fill="#000000">value = [[75, 0]</text>
<text text-anchor="middle" x="243.5" y="-543.8" font-family="Helvetica,sans-Serif" font-size="14.00" fill="#000000">[41, 34]</text>
<text text-anchor="middle" x="243.5" y="-528.8" font-family="Helvetica,sans-Serif" font-size="14.00" fill="#000000">[34, 41]]</text>
</g>
<!-- 0&#45;&gt;2 -->
<g id="edge2" class="edge">
<title>0&#45;&gt;2</title>
<path fill="none" stroke="#000000" d="M202.3345,-654.8642C206.5295,-646.216 210.9324,-637.1394 215.2345,-628.2704"/>
<polygon fill="#000000" stroke="#000000" points="218.453,-629.6547 219.6684,-619.1298 212.1549,-626.5996 218.453,-629.6547"/>
<text text-anchor="middle" x="227.8584" y="-639.0502" font-family="Helvetica,sans-Serif" font-size="14.00" fill="#000000">False</text>
</g>
<!-- 3 -->
<g id="node4" class="node">
<title>3</title>
<polygon fill="none" stroke="#000000" points="234,-485 123,-485 123,-387 234,-387 234,-485"/>
<text text-anchor="middle" x="178.5" y="-469.8" font-family="Helvetica,sans-Serif" font-size="14.00" fill="#000000">X[2] &lt;= 4.95</text>
<text text-anchor="middle" x="178.5" y="-454.8" font-family="Helvetica,sans-Serif" font-size="14.00" fill="#000000">gini = 0.129</text>
<text text-anchor="middle" x="178.5" y="-439.8" font-family="Helvetica,sans-Serif" font-size="14.00" fill="#000000">samples = 37</text>
<text text-anchor="middle" x="178.5" y="-424.8" font-family="Helvetica,sans-Serif" font-size="14.00" fill="#000000">value = [[37, 0]</text>
<text text-anchor="middle" x="178.5" y="-409.8" font-family="Helvetica,sans-Serif" font-size="14.00" fill="#000000">[4, 33]</text>
<text text-anchor="middle" x="178.5" y="-394.8" font-family="Helvetica,sans-Serif" font-size="14.00" fill="#000000">[33, 4]]</text>
</g>
<!-- 2&#45;&gt;3 -->
<g id="edge3" class="edge">
<title>2&#45;&gt;3</title>
<path fill="none" stroke="#000000" d="M219.6655,-520.8642C215.4705,-512.216 211.0676,-503.1394 206.7655,-494.2704"/>
<polygon fill="#000000" stroke="#000000" points="209.8451,-492.5996 202.3316,-485.1298 203.547,-495.6547 209.8451,-492.5996"/>
</g>
<!-- 10 -->
<g id="node11" class="node">
<title>10</title>
<polygon fill="none" stroke="#000000" points="363,-485 252,-485 252,-387 363,-387 363,-485"/>
<text text-anchor="middle" x="307.5" y="-469.8" font-family="Helvetica,sans-Serif" font-size="14.00" fill="#000000">X[2] &lt;= 4.85</text>
<text text-anchor="middle" x="307.5" y="-454.8" font-family="Helvetica,sans-Serif" font-size="14.00" fill="#000000">gini = 0.034</text>
<text text-anchor="middle" x="307.5" y="-439.8" font-family="Helvetica,sans-Serif" font-size="14.00" fill="#000000">samples = 38</text>
<text text-anchor="middle" x="307.5" y="-424.8" font-family="Helvetica,sans-Serif" font-size="14.00" fill="#000000">value = [[38, 0]</text>
<text text-anchor="middle" x="307.5" y="-409.8" font-family="Helvetica,sans-Serif" font-size="14.00" fill="#000000">[37, 1]</text>
<text text-anchor="middle" x="307.5" y="-394.8" font-family="Helvetica,sans-Serif" font-size="14.00" fill="#000000">[1, 37]]</text>
</g>
<!-- 2&#45;&gt;10 -->
<g id="edge10" class="edge">
<title>2&#45;&gt;10</title>
<path fill="none" stroke="#000000" d="M266.9678,-520.8642C271.0983,-512.216 275.4334,-503.1394 279.6693,-494.2704"/>
<polygon fill="#000000" stroke="#000000" points="282.8834,-495.6619 284.035,-485.1298 276.5669,-492.645 282.8834,-495.6619"/>
</g>
<!-- 4 -->
<g id="node5" class="node">
<title>4</title>
<polygon fill="none" stroke="#000000" points="111,-343.5 0,-343.5 0,-260.5 111,-260.5 111,-343.5"/>
<text text-anchor="middle" x="55.5" y="-328.3" font-family="Helvetica,sans-Serif" font-size="14.00" fill="#000000">gini = 0.0</text>
<text text-anchor="middle" x="55.5" y="-313.3" font-family="Helvetica,sans-Serif" font-size="14.00" fill="#000000">samples = 32</text>
<text text-anchor="middle" x="55.5" y="-298.3" font-family="Helvetica,sans-Serif" font-size="14.00" fill="#000000">value = [[32, 0]</text>
<text text-anchor="middle" x="55.5" y="-283.3" font-family="Helvetica,sans-Serif" font-size="14.00" fill="#000000">[0, 32]</text>
<text text-anchor="middle" x="55.5" y="-268.3" font-family="Helvetica,sans-Serif" font-size="14.00" fill="#000000">[32, 0]]</text>
</g>
<!-- 3&#45;&gt;4 -->
<g id="edge4" class="edge">
<title>3&#45;&gt;4</title>
<path fill="none" stroke="#000000" d="M133.3978,-386.8642C122.7116,-375.2224 111.3129,-362.8043 100.6257,-351.1613"/>
<polygon fill="#000000" stroke="#000000" points="103.0608,-348.6383 93.7201,-343.6381 97.9039,-353.3719 103.0608,-348.6383"/>
</g>
<!-- 5 -->
<g id="node6" class="node">
<title>5</title>
<polygon fill="none" stroke="#000000" points="232,-351 129,-351 129,-253 232,-253 232,-351"/>
<text text-anchor="middle" x="180.5" y="-335.8" font-family="Helvetica,sans-Serif" font-size="14.00" fill="#000000">X[3] &lt;= 1.55</text>
<text text-anchor="middle" x="180.5" y="-320.8" font-family="Helvetica,sans-Serif" font-size="14.00" fill="#000000">gini = 0.213</text>
<text text-anchor="middle" x="180.5" y="-305.8" font-family="Helvetica,sans-Serif" font-size="14.00" fill="#000000">samples = 5</text>
<text text-anchor="middle" x="180.5" y="-290.8" font-family="Helvetica,sans-Serif" font-size="14.00" fill="#000000">value = [[5, 0]</text>
<text text-anchor="middle" x="180.5" y="-275.8" font-family="Helvetica,sans-Serif" font-size="14.00" fill="#000000">[4, 1]</text>
<text text-anchor="middle" x="180.5" y="-260.8" font-family="Helvetica,sans-Serif" font-size="14.00" fill="#000000">[1, 4]]</text>
</g>
<!-- 3&#45;&gt;5 -->
<g id="edge5" class="edge">
<title>3&#45;&gt;5</title>
<path fill="none" stroke="#000000" d="M179.2334,-386.8642C179.357,-378.5802 179.4865,-369.903 179.6136,-361.3918"/>
<polygon fill="#000000" stroke="#000000" points="183.117,-361.181 179.7667,-351.1298 176.1178,-361.0764 183.117,-361.181"/>
</g>
<!-- 6 -->
<g id="node7" class="node">
<title>6</title>
<polygon fill="none" stroke="#000000" points="112,-209.5 9,-209.5 9,-126.5 112,-126.5 112,-209.5"/>
<text text-anchor="middle" x="60.5" y="-194.3" font-family="Helvetica,sans-Serif" font-size="14.00" fill="#000000">gini = 0.0</text>
<text text-anchor="middle" x="60.5" y="-179.3" font-family="Helvetica,sans-Serif" font-size="14.00" fill="#000000">samples = 3</text>
<text text-anchor="middle" x="60.5" y="-164.3" font-family="Helvetica,sans-Serif" font-size="14.00" fill="#000000">value = [[3, 0]</text>
<text text-anchor="middle" x="60.5" y="-149.3" font-family="Helvetica,sans-Serif" font-size="14.00" fill="#000000">[3, 0]</text>
<text text-anchor="middle" x="60.5" y="-134.3" font-family="Helvetica,sans-Serif" font-size="14.00" fill="#000000">[0, 3]]</text>
</g>
<!-- 5&#45;&gt;6 -->
<g id="edge6" class="edge">
<title>5&#45;&gt;6</title>
<path fill="none" stroke="#000000" d="M136.4978,-252.8642C126.0723,-241.2224 114.9516,-228.8043 104.5251,-217.1613"/>
<polygon fill="#000000" stroke="#000000" points="107.0664,-214.7527 97.7879,-209.6381 101.8518,-219.4226 107.0664,-214.7527"/>
</g>
<!-- 7 -->
<g id="node8" class="node">
<title>7</title>
<polygon fill="none" stroke="#000000" points="233,-217 130,-217 130,-119 233,-119 233,-217"/>
<text text-anchor="middle" x="181.5" y="-201.8" font-family="Helvetica,sans-Serif" font-size="14.00" fill="#000000">X[2] &lt;= 5.45</text>
<text text-anchor="middle" x="181.5" y="-186.8" font-family="Helvetica,sans-Serif" font-size="14.00" fill="#000000">gini = 0.333</text>
<text text-anchor="middle" x="181.5" y="-171.8" font-family="Helvetica,sans-Serif" font-size="14.00" fill="#000000">samples = 2</text>
<text text-anchor="middle" x="181.5" y="-156.8" font-family="Helvetica,sans-Serif" font-size="14.00" fill="#000000">value = [[2, 0]</text>
<text text-anchor="middle" x="181.5" y="-141.8" font-family="Helvetica,sans-Serif" font-size="14.00" fill="#000000">[1, 1]</text>
<text text-anchor="middle" x="181.5" y="-126.8" font-family="Helvetica,sans-Serif" font-size="14.00" fill="#000000">[1, 1]]</text>
</g>
<!-- 5&#45;&gt;7 -->
<g id="edge7" class="edge">
<title>5&#45;&gt;7</title>
<path fill="none" stroke="#000000" d="M180.8667,-252.8642C180.9285,-244.5802 180.9933,-235.903 181.0568,-227.3918"/>
<polygon fill="#000000" stroke="#000000" points="184.5585,-227.1557 181.1334,-217.1298 177.5587,-227.1034 184.5585,-227.1557"/>
</g>
<!-- 8 -->
<g id="node9" class="node">
<title>8</title>
<polygon fill="none" stroke="#000000" points="172,-83 69,-83 69,0 172,0 172,-83"/>
<text text-anchor="middle" x="120.5" y="-67.8" font-family="Helvetica,sans-Serif" font-size="14.00" fill="#000000">gini = 0.0</text>
<text text-anchor="middle" x="120.5" y="-52.8" font-family="Helvetica,sans-Serif" font-size="14.00" fill="#000000">samples = 1</text>
<text text-anchor="middle" x="120.5" y="-37.8" font-family="Helvetica,sans-Serif" font-size="14.00" fill="#000000">value = [[1, 0]</text>
<text text-anchor="middle" x="120.5" y="-22.8" font-family="Helvetica,sans-Serif" font-size="14.00" fill="#000000">[0, 1]</text>
<text text-anchor="middle" x="120.5" y="-7.8" font-family="Helvetica,sans-Serif" font-size="14.00" fill="#000000">[1, 0]]</text>
</g>
<!-- 7&#45;&gt;8 -->
<g id="edge8" class="edge">
<title>7&#45;&gt;8</title>
<path fill="none" stroke="#000000" d="M157.7411,-118.7296C153.5648,-110.0688 149.2109,-101.0398 145.0144,-92.3372"/>
<polygon fill="#000000" stroke="#000000" points="148.0345,-90.5422 140.5384,-83.055 141.7293,-93.5827 148.0345,-90.5422"/>
</g>
<!-- 9 -->
<g id="node10" class="node">
<title>9</title>
<polygon fill="none" stroke="#000000" points="293,-83 190,-83 190,0 293,0 293,-83"/>
<text text-anchor="middle" x="241.5" y="-67.8" font-family="Helvetica,sans-Serif" font-size="14.00" fill="#000000">gini = 0.0</text>
<text text-anchor="middle" x="241.5" y="-52.8" font-family="Helvetica,sans-Serif" font-size="14.00" fill="#000000">samples = 1</text>
<text text-anchor="middle" x="241.5" y="-37.8" font-family="Helvetica,sans-Serif" font-size="14.00" fill="#000000">value = [[1, 0]</text>
<text text-anchor="middle" x="241.5" y="-22.8" font-family="Helvetica,sans-Serif" font-size="14.00" fill="#000000">[1, 0]</text>
<text text-anchor="middle" x="241.5" y="-7.8" font-family="Helvetica,sans-Serif" font-size="14.00" fill="#000000">[0, 1]]</text>
</g>
<!-- 7&#45;&gt;9 -->
<g id="edge9" class="edge">
<title>7&#45;&gt;9</title>
<path fill="none" stroke="#000000" d="M204.8694,-118.7296C208.9773,-110.0688 213.2598,-101.0398 217.3875,-92.3372"/>
<polygon fill="#000000" stroke="#000000" points="220.6669,-93.5901 221.7901,-83.055 214.3423,-90.5902 220.6669,-93.5901"/>
</g>
<!-- 11 -->
<g id="node12" class="node">
<title>11</title>
<polygon fill="none" stroke="#000000" points="357,-351 254,-351 254,-253 357,-253 357,-351"/>
<text text-anchor="middle" x="305.5" y="-335.8" font-family="Helvetica,sans-Serif" font-size="14.00" fill="#000000">X[1] &lt;= 3.1</text>
<text text-anchor="middle" x="305.5" y="-320.8" font-family="Helvetica,sans-Serif" font-size="14.00" fill="#000000">gini = 0.25</text>
<text text-anchor="middle" x="305.5" y="-305.8" font-family="Helvetica,sans-Serif" font-size="14.00" fill="#000000">samples = 4</text>
<text text-anchor="middle" x="305.5" y="-290.8" font-family="Helvetica,sans-Serif" font-size="14.00" fill="#000000">value = [[4, 0]</text>
<text text-anchor="middle" x="305.5" y="-275.8" font-family="Helvetica,sans-Serif" font-size="14.00" fill="#000000">[3, 1]</text>
<text text-anchor="middle" x="305.5" y="-260.8" font-family="Helvetica,sans-Serif" font-size="14.00" fill="#000000">[1, 3]]</text>
</g>
<!-- 10&#45;&gt;11 -->
<g id="edge11" class="edge">
<title>10&#45;&gt;11</title>
<path fill="none" stroke="#000000" d="M306.7666,-386.8642C306.643,-378.5802 306.5135,-369.903 306.3864,-361.3918"/>
<polygon fill="#000000" stroke="#000000" points="309.8822,-361.0764 306.2333,-351.1298 302.883,-361.181 309.8822,-361.0764"/>
</g>
<!-- 14 -->
<g id="node15" class="node">
<title>14</title>
<polygon fill="none" stroke="#000000" points="486,-343.5 375,-343.5 375,-260.5 486,-260.5 486,-343.5"/>
<text text-anchor="middle" x="430.5" y="-328.3" font-family="Helvetica,sans-Serif" font-size="14.00" fill="#000000">gini = 0.0</text>
<text text-anchor="middle" x="430.5" y="-313.3" font-family="Helvetica,sans-Serif" font-size="14.00" fill="#000000">samples = 34</text>
<text text-anchor="middle" x="430.5" y="-298.3" font-family="Helvetica,sans-Serif" font-size="14.00" fill="#000000">value = [[34, 0]</text>
<text text-anchor="middle" x="430.5" y="-283.3" font-family="Helvetica,sans-Serif" font-size="14.00" fill="#000000">[34, 0]</text>
<text text-anchor="middle" x="430.5" y="-268.3" font-family="Helvetica,sans-Serif" font-size="14.00" fill="#000000">[0, 34]]</text>
</g>
<!-- 10&#45;&gt;14 -->
<g id="edge14" class="edge">
<title>10&#45;&gt;14</title>
<path fill="none" stroke="#000000" d="M352.6022,-386.8642C363.2884,-375.2224 374.6871,-362.8043 385.3743,-351.1613"/>
<polygon fill="#000000" stroke="#000000" points="388.0961,-353.3719 392.2799,-343.6381 382.9392,-348.6383 388.0961,-353.3719"/>
</g>
<!-- 12 -->
<g id="node13" class="node">
<title>12</title>
<polygon fill="none" stroke="#000000" points="356,-209.5 253,-209.5 253,-126.5 356,-126.5 356,-209.5"/>
<text text-anchor="middle" x="304.5" y="-194.3" font-family="Helvetica,sans-Serif" font-size="14.00" fill="#000000">gini = 0.0</text>
<text text-anchor="middle" x="304.5" y="-179.3" font-family="Helvetica,sans-Serif" font-size="14.00" fill="#000000">samples = 3</text>
<text text-anchor="middle" x="304.5" y="-164.3" font-family="Helvetica,sans-Serif" font-size="14.00" fill="#000000">value = [[3, 0]</text>
<text text-anchor="middle" x="304.5" y="-149.3" font-family="Helvetica,sans-Serif" font-size="14.00" fill="#000000">[3, 0]</text>
<text text-anchor="middle" x="304.5" y="-134.3" font-family="Helvetica,sans-Serif" font-size="14.00" fill="#000000">[0, 3]]</text>
</g>
<!-- 11&#45;&gt;12 -->
<g id="edge12" class="edge">
<title>11&#45;&gt;12</title>
<path fill="none" stroke="#000000" d="M305.1333,-252.8642C305.0531,-242.1094 304.9679,-230.6921 304.8868,-219.8354"/>
<polygon fill="#000000" stroke="#000000" points="308.3854,-219.6117 304.8107,-209.6381 301.3856,-219.664 308.3854,-219.6117"/>
</g>
<!-- 13 -->
<g id="node14" class="node">
<title>13</title>
<polygon fill="none" stroke="#000000" points="477,-209.5 374,-209.5 374,-126.5 477,-126.5 477,-209.5"/>
<text text-anchor="middle" x="425.5" y="-194.3" font-family="Helvetica,sans-Serif" font-size="14.00" fill="#000000">gini = 0.0</text>
<text text-anchor="middle" x="425.5" y="-179.3" font-family="Helvetica,sans-Serif" font-size="14.00" fill="#000000">samples = 1</text>
<text text-anchor="middle" x="425.5" y="-164.3" font-family="Helvetica,sans-Serif" font-size="14.00" fill="#000000">value = [[1, 0]</text>
<text text-anchor="middle" x="425.5" y="-149.3" font-family="Helvetica,sans-Serif" font-size="14.00" fill="#000000">[0, 1]</text>
<text text-anchor="middle" x="425.5" y="-134.3" font-family="Helvetica,sans-Serif" font-size="14.00" fill="#000000">[1, 0]]</text>
</g>
<!-- 11&#45;&gt;13 -->
<g id="edge13" class="edge">
<title>11&#45;&gt;13</title>
<path fill="none" stroke="#000000" d="M349.5022,-252.8642C359.9277,-241.2224 371.0484,-228.8043 381.4749,-217.1613"/>
<polygon fill="#000000" stroke="#000000" points="384.1482,-219.4226 388.2121,-209.6381 378.9336,-214.7527 384.1482,-219.4226"/>
</g>
</g>
</svg>
