<?xml version="1.0" encoding="UTF-8" standalone="no"?>
<!DOCTYPE svg PUBLIC "-//W3C//DTD SVG 1.1//EN"
 "http://www.w3.org/Graphics/SVG/1.1/DTD/svg11.dtd">
<!-- Generated by graphviz version 2.40.1 (20161225.0304)
 -->
<!-- Title: Tree Pages: 1 -->
<svg width="1069pt" height="581pt"
 viewBox="0.00 0.00 1069.00 581.00" xmlns="http://www.w3.org/2000/svg" xmlns:xlink="http://www.w3.org/1999/xlink">
<g id="graph0" class="graph" transform="scale(1 1) rotate(0) translate(4 577)">
<title>Tree</title>
<polygon fill="#ffffff" stroke="transparent" points="-4,4 -4,-577 1065,-577 1065,4 -4,4"/>
<!-- 0 -->
<g id="node1" class="node">
<title>0</title>
<polygon fill="none" stroke="#000000" points="512.5,-573 396.5,-573 396.5,-505 512.5,-505 512.5,-573"/>
<text text-anchor="middle" x="454.5" y="-557.8" font-family="Helvetica,sans-Serif" font-size="14.00" fill="#000000">X[1] &lt;= 91.5</text>
<text text-anchor="middle" x="454.5" y="-542.8" font-family="Helvetica,sans-Serif" font-size="14.00" fill="#000000">gini = 0.491</text>
<text text-anchor="middle" x="454.5" y="-527.8" font-family="Helvetica,sans-Serif" font-size="14.00" fill="#000000">samples = 92</text>
<text text-anchor="middle" x="454.5" y="-512.8" font-family="Helvetica,sans-Serif" font-size="14.00" fill="#000000">value = [40, 52]</text>
</g>
<!-- 1 -->
<g id="node2" class="node">
<title>1</title>
<polygon fill="none" stroke="#000000" points="399.5,-469 283.5,-469 283.5,-401 399.5,-401 399.5,-469"/>
<text text-anchor="middle" x="341.5" y="-453.8" font-family="Helvetica,sans-Serif" font-size="14.00" fill="#000000">X[2] &lt;= 3.793</text>
<text text-anchor="middle" x="341.5" y="-438.8" font-family="Helvetica,sans-Serif" font-size="14.00" fill="#000000">gini = 0.432</text>
<text text-anchor="middle" x="341.5" y="-423.8" font-family="Helvetica,sans-Serif" font-size="14.00" fill="#000000">samples = 38</text>
<text text-anchor="middle" x="341.5" y="-408.8" font-family="Helvetica,sans-Serif" font-size="14.00" fill="#000000">value = [26, 12]</text>
</g>
<!-- 0&#45;&gt;1 -->
<g id="edge1" class="edge">
<title>0&#45;&gt;1</title>
<path fill="none" stroke="#000000" d="M417.4996,-504.9465C407.4514,-495.6986 396.4653,-485.5876 386.0474,-475.9994"/>
<polygon fill="#000000" stroke="#000000" points="388.3118,-473.3267 378.5836,-469.13 383.5714,-478.4773 388.3118,-473.3267"/>
<text text-anchor="middle" x="379.6195" y="-490.4085" font-family="Helvetica,sans-Serif" font-size="14.00" fill="#000000">True</text>
</g>
<!-- 14 -->
<g id="node15" class="node">
<title>14</title>
<polygon fill="none" stroke="#000000" points="617.5,-469 501.5,-469 501.5,-401 617.5,-401 617.5,-469"/>
<text text-anchor="middle" x="559.5" y="-453.8" font-family="Helvetica,sans-Serif" font-size="14.00" fill="#000000">X[4] &lt;= 7.24</text>
<text text-anchor="middle" x="559.5" y="-438.8" font-family="Helvetica,sans-Serif" font-size="14.00" fill="#000000">gini = 0.384</text>
<text text-anchor="middle" x="559.5" y="-423.8" font-family="Helvetica,sans-Serif" font-size="14.00" fill="#000000">samples = 54</text>
<text text-anchor="middle" x="559.5" y="-408.8" font-family="Helvetica,sans-Serif" font-size="14.00" fill="#000000">value = [14, 40]</text>
</g>
<!-- 0&#45;&gt;14 -->
<g id="edge14" class="edge">
<title>0&#45;&gt;14</title>
<path fill="none" stroke="#000000" d="M488.8809,-504.9465C498.1271,-495.7884 508.2279,-485.7838 517.8243,-476.2788"/>
<polygon fill="#000000" stroke="#000000" points="520.4,-478.6539 525.0418,-469.13 515.474,-473.6805 520.4,-478.6539"/>
<text text-anchor="middle" x="524.9222" y="-490.4297" font-family="Helvetica,sans-Serif" font-size="14.00" fill="#000000">False</text>
</g>
<!-- 2 -->
<g id="node3" class="node">
<title>2</title>
<polygon fill="none" stroke="#000000" points="222,-365 111,-365 111,-297 222,-297 222,-365"/>
<text text-anchor="middle" x="166.5" y="-349.8" font-family="Helvetica,sans-Serif" font-size="14.00" fill="#000000">X[6] &lt;= 13.163</text>
<text text-anchor="middle" x="166.5" y="-334.8" font-family="Helvetica,sans-Serif" font-size="14.00" fill="#000000">gini = 0.375</text>
<text text-anchor="middle" x="166.5" y="-319.8" font-family="Helvetica,sans-Serif" font-size="14.00" fill="#000000">samples = 8</text>
<text text-anchor="middle" x="166.5" y="-304.8" font-family="Helvetica,sans-Serif" font-size="14.00" fill="#000000">value = [2, 6]</text>
</g>
<!-- 1&#45;&gt;2 -->
<g id="edge2" class="edge">
<title>1&#45;&gt;2</title>
<path fill="none" stroke="#000000" d="M284.1985,-400.9465C267.2213,-390.8572 248.5154,-379.7406 231.1093,-369.3964"/>
<polygon fill="#000000" stroke="#000000" points="232.5263,-366.1671 222.1416,-364.067 228.9501,-372.1846 232.5263,-366.1671"/>
</g>
<!-- 5 -->
<g id="node6" class="node">
<title>5</title>
<polygon fill="none" stroke="#000000" points="397,-365 286,-365 286,-297 397,-297 397,-365"/>
<text text-anchor="middle" x="341.5" y="-349.8" font-family="Helvetica,sans-Serif" font-size="14.00" fill="#000000">X[6] &lt;= 14.227</text>
<text text-anchor="middle" x="341.5" y="-334.8" font-family="Helvetica,sans-Serif" font-size="14.00" fill="#000000">gini = 0.32</text>
<text text-anchor="middle" x="341.5" y="-319.8" font-family="Helvetica,sans-Serif" font-size="14.00" fill="#000000">samples = 30</text>
<text text-anchor="middle" x="341.5" y="-304.8" font-family="Helvetica,sans-Serif" font-size="14.00" fill="#000000">value = [24, 6]</text>
</g>
<!-- 1&#45;&gt;5 -->
<g id="edge5" class="edge">
<title>1&#45;&gt;5</title>
<path fill="none" stroke="#000000" d="M341.5,-400.9465C341.5,-392.776 341.5,-383.9318 341.5,-375.3697"/>
<polygon fill="#000000" stroke="#000000" points="345.0001,-375.13 341.5,-365.13 338.0001,-375.13 345.0001,-375.13"/>
</g>
<!-- 3 -->
<g id="node4" class="node">
<title>3</title>
<polygon fill="none" stroke="#000000" points="99,-253.5 0,-253.5 0,-200.5 99,-200.5 99,-253.5"/>
<text text-anchor="middle" x="49.5" y="-238.3" font-family="Helvetica,sans-Serif" font-size="14.00" fill="#000000">gini = 0.5</text>
<text text-anchor="middle" x="49.5" y="-223.3" font-family="Helvetica,sans-Serif" font-size="14.00" fill="#000000">samples = 4</text>
<text text-anchor="middle" x="49.5" y="-208.3" font-family="Helvetica,sans-Serif" font-size="14.00" fill="#000000">value = [2, 2]</text>
</g>
<!-- 2&#45;&gt;3 -->
<g id="edge3" class="edge">
<title>2&#45;&gt;3</title>
<path fill="none" stroke="#000000" d="M128.1898,-296.9465C114.9306,-285.1606 100.0942,-271.9726 86.9084,-260.2519"/>
<polygon fill="#000000" stroke="#000000" points="89.1593,-257.5699 79.3599,-253.5422 84.5088,-262.8018 89.1593,-257.5699"/>
</g>
<!-- 4 -->
<g id="node5" class="node">
<title>4</title>
<polygon fill="none" stroke="#000000" points="216,-253.5 117,-253.5 117,-200.5 216,-200.5 216,-253.5"/>
<text text-anchor="middle" x="166.5" y="-238.3" font-family="Helvetica,sans-Serif" font-size="14.00" fill="#000000">gini = 0.0</text>
<text text-anchor="middle" x="166.5" y="-223.3" font-family="Helvetica,sans-Serif" font-size="14.00" fill="#000000">samples = 4</text>
<text text-anchor="middle" x="166.5" y="-208.3" font-family="Helvetica,sans-Serif" font-size="14.00" fill="#000000">value = [0, 4]</text>
</g>
<!-- 2&#45;&gt;4 -->
<g id="edge4" class="edge">
<title>2&#45;&gt;4</title>
<path fill="none" stroke="#000000" d="M166.5,-296.9465C166.5,-286.2621 166.5,-274.4254 166.5,-263.5742"/>
<polygon fill="#000000" stroke="#000000" points="170.0001,-263.5421 166.5,-253.5422 163.0001,-263.5422 170.0001,-263.5421"/>
</g>
<!-- 6 -->
<g id="node7" class="node">
<title>6</title>
<polygon fill="none" stroke="#000000" points="345,-261 234,-261 234,-193 345,-193 345,-261"/>
<text text-anchor="middle" x="289.5" y="-245.8" font-family="Helvetica,sans-Serif" font-size="14.00" fill="#000000">X[2] &lt;= 14.391</text>
<text text-anchor="middle" x="289.5" y="-230.8" font-family="Helvetica,sans-Serif" font-size="14.00" fill="#000000">gini = 0.111</text>
<text text-anchor="middle" x="289.5" y="-215.8" font-family="Helvetica,sans-Serif" font-size="14.00" fill="#000000">samples = 17</text>
<text text-anchor="middle" x="289.5" y="-200.8" font-family="Helvetica,sans-Serif" font-size="14.00" fill="#000000">value = [16, 1]</text>
</g>
<!-- 5&#45;&gt;6 -->
<g id="edge6" class="edge">
<title>5&#45;&gt;6</title>
<path fill="none" stroke="#000000" d="M324.4733,-296.9465C320.2085,-288.4169 315.5765,-279.153 311.1212,-270.2424"/>
<polygon fill="#000000" stroke="#000000" points="314.1677,-268.509 306.565,-261.13 307.9067,-271.6395 314.1677,-268.509"/>
</g>
<!-- 9 -->
<g id="node10" class="node">
<title>9</title>
<polygon fill="none" stroke="#000000" points="474,-261 363,-261 363,-193 474,-193 474,-261"/>
<text text-anchor="middle" x="418.5" y="-245.8" font-family="Helvetica,sans-Serif" font-size="14.00" fill="#000000">X[0] &lt;= 31.124</text>
<text text-anchor="middle" x="418.5" y="-230.8" font-family="Helvetica,sans-Serif" font-size="14.00" fill="#000000">gini = 0.473</text>
<text text-anchor="middle" x="418.5" y="-215.8" font-family="Helvetica,sans-Serif" font-size="14.00" fill="#000000">samples = 13</text>
<text text-anchor="middle" x="418.5" y="-200.8" font-family="Helvetica,sans-Serif" font-size="14.00" fill="#000000">value = [8, 5]</text>
</g>
<!-- 5&#45;&gt;9 -->
<g id="edge9" class="edge">
<title>5&#45;&gt;9</title>
<path fill="none" stroke="#000000" d="M366.7127,-296.9465C373.2273,-288.1475 380.3205,-278.5672 387.1082,-269.3993"/>
<polygon fill="#000000" stroke="#000000" points="390.0931,-271.2496 393.2307,-261.13 384.4673,-267.0843 390.0931,-271.2496"/>
</g>
<!-- 7 -->
<g id="node8" class="node">
<title>7</title>
<polygon fill="none" stroke="#000000" points="222,-149.5 115,-149.5 115,-96.5 222,-96.5 222,-149.5"/>
<text text-anchor="middle" x="168.5" y="-134.3" font-family="Helvetica,sans-Serif" font-size="14.00" fill="#000000">gini = 0.0</text>
<text text-anchor="middle" x="168.5" y="-119.3" font-family="Helvetica,sans-Serif" font-size="14.00" fill="#000000">samples = 14</text>
<text text-anchor="middle" x="168.5" y="-104.3" font-family="Helvetica,sans-Serif" font-size="14.00" fill="#000000">value = [14, 0]</text>
</g>
<!-- 6&#45;&gt;7 -->
<g id="edge7" class="edge">
<title>6&#45;&gt;7</title>
<path fill="none" stroke="#000000" d="M249.8801,-192.9465C236.1676,-181.1606 220.8239,-167.9726 207.1873,-156.2519"/>
<polygon fill="#000000" stroke="#000000" points="209.2459,-153.4061 199.3808,-149.5422 204.6831,-158.7147 209.2459,-153.4061"/>
</g>
<!-- 8 -->
<g id="node9" class="node">
<title>8</title>
<polygon fill="none" stroke="#000000" points="339,-149.5 240,-149.5 240,-96.5 339,-96.5 339,-149.5"/>
<text text-anchor="middle" x="289.5" y="-134.3" font-family="Helvetica,sans-Serif" font-size="14.00" fill="#000000">gini = 0.444</text>
<text text-anchor="middle" x="289.5" y="-119.3" font-family="Helvetica,sans-Serif" font-size="14.00" fill="#000000">samples = 3</text>
<text text-anchor="middle" x="289.5" y="-104.3" font-family="Helvetica,sans-Serif" font-size="14.00" fill="#000000">value = [2, 1]</text>
</g>
<!-- 6&#45;&gt;8 -->
<g id="edge8" class="edge">
<title>6&#45;&gt;8</title>
<path fill="none" stroke="#000000" d="M289.5,-192.9465C289.5,-182.2621 289.5,-170.4254 289.5,-159.5742"/>
<polygon fill="#000000" stroke="#000000" points="293.0001,-159.5421 289.5,-149.5422 286.0001,-159.5422 293.0001,-159.5421"/>
</g>
<!-- 10 -->
<g id="node11" class="node">
<title>10</title>
<polygon fill="none" stroke="#000000" points="460,-157 357,-157 357,-89 460,-89 460,-157"/>
<text text-anchor="middle" x="408.5" y="-141.8" font-family="Helvetica,sans-Serif" font-size="14.00" fill="#000000">X[5] &lt;= 7.537</text>
<text text-anchor="middle" x="408.5" y="-126.8" font-family="Helvetica,sans-Serif" font-size="14.00" fill="#000000">gini = 0.278</text>
<text text-anchor="middle" x="408.5" y="-111.8" font-family="Helvetica,sans-Serif" font-size="14.00" fill="#000000">samples = 6</text>
<text text-anchor="middle" x="408.5" y="-96.8" font-family="Helvetica,sans-Serif" font-size="14.00" fill="#000000">value = [1, 5]</text>
</g>
<!-- 9&#45;&gt;10 -->
<g id="edge10" class="edge">
<title>9&#45;&gt;10</title>
<path fill="none" stroke="#000000" d="M415.2256,-192.9465C414.4314,-184.6863 413.5709,-175.7374 412.7392,-167.0875"/>
<polygon fill="#000000" stroke="#000000" points="416.2229,-166.7491 411.7817,-157.13 409.255,-167.4191 416.2229,-166.7491"/>
</g>
<!-- 13 -->
<g id="node14" class="node">
<title>13</title>
<polygon fill="none" stroke="#000000" points="577,-149.5 478,-149.5 478,-96.5 577,-96.5 577,-149.5"/>
<text text-anchor="middle" x="527.5" y="-134.3" font-family="Helvetica,sans-Serif" font-size="14.00" fill="#000000">gini = 0.0</text>
<text text-anchor="middle" x="527.5" y="-119.3" font-family="Helvetica,sans-Serif" font-size="14.00" fill="#000000">samples = 7</text>
<text text-anchor="middle" x="527.5" y="-104.3" font-family="Helvetica,sans-Serif" font-size="14.00" fill="#000000">value = [7, 0]</text>
</g>
<!-- 9&#45;&gt;13 -->
<g id="edge13" class="edge">
<title>9&#45;&gt;13</title>
<path fill="none" stroke="#000000" d="M454.1907,-192.9465C466.4278,-181.2707 480.107,-168.219 492.3046,-156.5809"/>
<polygon fill="#000000" stroke="#000000" points="494.8628,-158.9777 499.6818,-149.5422 490.0306,-153.9131 494.8628,-158.9777"/>
</g>
<!-- 11 -->
<g id="node12" class="node">
<title>11</title>
<polygon fill="none" stroke="#000000" points="341,-53 242,-53 242,0 341,0 341,-53"/>
<text text-anchor="middle" x="291.5" y="-37.8" font-family="Helvetica,sans-Serif" font-size="14.00" fill="#000000">gini = 0.0</text>
<text text-anchor="middle" x="291.5" y="-22.8" font-family="Helvetica,sans-Serif" font-size="14.00" fill="#000000">samples = 3</text>
<text text-anchor="middle" x="291.5" y="-7.8" font-family="Helvetica,sans-Serif" font-size="14.00" fill="#000000">value = [0, 3]</text>
</g>
<!-- 10&#45;&gt;11 -->
<g id="edge11" class="edge">
<title>10&#45;&gt;11</title>
<path fill="none" stroke="#000000" d="M367.2502,-88.9777C355.7039,-79.4545 343.1729,-69.1191 331.689,-59.6473"/>
<polygon fill="#000000" stroke="#000000" points="333.8724,-56.9113 323.9308,-53.2485 329.4184,-62.3115 333.8724,-56.9113"/>
</g>
<!-- 12 -->
<g id="node13" class="node">
<title>12</title>
<polygon fill="none" stroke="#000000" points="458,-53 359,-53 359,0 458,0 458,-53"/>
<text text-anchor="middle" x="408.5" y="-37.8" font-family="Helvetica,sans-Serif" font-size="14.00" fill="#000000">gini = 0.444</text>
<text text-anchor="middle" x="408.5" y="-22.8" font-family="Helvetica,sans-Serif" font-size="14.00" fill="#000000">samples = 3</text>
<text text-anchor="middle" x="408.5" y="-7.8" font-family="Helvetica,sans-Serif" font-size="14.00" fill="#000000">value = [1, 2]</text>
</g>
<!-- 10&#45;&gt;12 -->
<g id="edge12" class="edge">
<title>10&#45;&gt;12</title>
<path fill="none" stroke="#000000" d="M408.5,-88.9777C408.5,-80.7364 408.5,-71.887 408.5,-63.5153"/>
<polygon fill="#000000" stroke="#000000" points="412.0001,-63.2484 408.5,-53.2485 405.0001,-63.2485 412.0001,-63.2484"/>
</g>
<!-- 15 -->
<g id="node16" class="node">
<title>15</title>
<polygon fill="none" stroke="#000000" points="609,-357.5 510,-357.5 510,-304.5 609,-304.5 609,-357.5"/>
<text text-anchor="middle" x="559.5" y="-342.3" font-family="Helvetica,sans-Serif" font-size="14.00" fill="#000000">gini = 0.0</text>
<text text-anchor="middle" x="559.5" y="-327.3" font-family="Helvetica,sans-Serif" font-size="14.00" fill="#000000">samples = 3</text>
<text text-anchor="middle" x="559.5" y="-312.3" font-family="Helvetica,sans-Serif" font-size="14.00" fill="#000000">value = [3, 0]</text>
</g>
<!-- 14&#45;&gt;15 -->
<g id="edge15" class="edge">
<title>14&#45;&gt;15</title>
<path fill="none" stroke="#000000" d="M559.5,-400.9465C559.5,-390.2621 559.5,-378.4254 559.5,-367.5742"/>
<polygon fill="#000000" stroke="#000000" points="563.0001,-367.5421 559.5,-357.5422 556.0001,-367.5422 563.0001,-367.5421"/>
</g>
<!-- 16 -->
<g id="node17" class="node">
<title>16</title>
<polygon fill="none" stroke="#000000" points="766.5,-365 650.5,-365 650.5,-297 766.5,-297 766.5,-365"/>
<text text-anchor="middle" x="708.5" y="-349.8" font-family="Helvetica,sans-Serif" font-size="14.00" fill="#000000">X[4] &lt;= 55.591</text>
<text text-anchor="middle" x="708.5" y="-334.8" font-family="Helvetica,sans-Serif" font-size="14.00" fill="#000000">gini = 0.338</text>
<text text-anchor="middle" x="708.5" y="-319.8" font-family="Helvetica,sans-Serif" font-size="14.00" fill="#000000">samples = 51</text>
<text text-anchor="middle" x="708.5" y="-304.8" font-family="Helvetica,sans-Serif" font-size="14.00" fill="#000000">value = [11, 40]</text>
</g>
<!-- 14&#45;&gt;16 -->
<g id="edge16" class="edge">
<title>14&#45;&gt;16</title>
<path fill="none" stroke="#000000" d="M608.2882,-400.9465C622.0521,-391.3395 637.1506,-380.8009 651.3574,-370.8848"/>
<polygon fill="#000000" stroke="#000000" points="653.4054,-373.7236 659.6022,-365.13 649.3989,-367.9835 653.4054,-373.7236"/>
</g>
<!-- 17 -->
<g id="node18" class="node">
<title>17</title>
<polygon fill="none" stroke="#000000" points="764,-261 653,-261 653,-193 764,-193 764,-261"/>
<text text-anchor="middle" x="708.5" y="-245.8" font-family="Helvetica,sans-Serif" font-size="14.00" fill="#000000">X[6] &lt;= 11.927</text>
<text text-anchor="middle" x="708.5" y="-230.8" font-family="Helvetica,sans-Serif" font-size="14.00" fill="#000000">gini = 0.268</text>
<text text-anchor="middle" x="708.5" y="-215.8" font-family="Helvetica,sans-Serif" font-size="14.00" fill="#000000">samples = 44</text>
<text text-anchor="middle" x="708.5" y="-200.8" font-family="Helvetica,sans-Serif" font-size="14.00" fill="#000000">value = [7, 37]</text>
</g>
<!-- 16&#45;&gt;17 -->
<g id="edge17" class="edge">
<title>16&#45;&gt;17</title>
<path fill="none" stroke="#000000" d="M708.5,-296.9465C708.5,-288.776 708.5,-279.9318 708.5,-271.3697"/>
<polygon fill="#000000" stroke="#000000" points="712.0001,-271.13 708.5,-261.13 705.0001,-271.13 712.0001,-271.13"/>
</g>
<!-- 24 -->
<g id="node25" class="node">
<title>24</title>
<polygon fill="none" stroke="#000000" points="946,-261 843,-261 843,-193 946,-193 946,-261"/>
<text text-anchor="middle" x="894.5" y="-245.8" font-family="Helvetica,sans-Serif" font-size="14.00" fill="#000000">X[5] &lt;= 7.721</text>
<text text-anchor="middle" x="894.5" y="-230.8" font-family="Helvetica,sans-Serif" font-size="14.00" fill="#000000">gini = 0.49</text>
<text text-anchor="middle" x="894.5" y="-215.8" font-family="Helvetica,sans-Serif" font-size="14.00" fill="#000000">samples = 7</text>
<text text-anchor="middle" x="894.5" y="-200.8" font-family="Helvetica,sans-Serif" font-size="14.00" fill="#000000">value = [4, 3]</text>
</g>
<!-- 16&#45;&gt;24 -->
<g id="edge24" class="edge">
<title>16&#45;&gt;24</title>
<path fill="none" stroke="#000000" d="M766.5865,-298.5215C788.04,-286.526 812.3932,-272.9092 834.051,-260.7994"/>
<polygon fill="#000000" stroke="#000000" points="835.8147,-263.8233 842.8348,-255.888 832.3984,-257.7135 835.8147,-263.8233"/>
</g>
<!-- 18 -->
<g id="node19" class="node">
<title>18</title>
<polygon fill="none" stroke="#000000" points="702,-157 595,-157 595,-89 702,-89 702,-157"/>
<text text-anchor="middle" x="648.5" y="-141.8" font-family="Helvetica,sans-Serif" font-size="14.00" fill="#000000">X[6] &lt;= 8.31</text>
<text text-anchor="middle" x="648.5" y="-126.8" font-family="Helvetica,sans-Serif" font-size="14.00" fill="#000000">gini = 0.386</text>
<text text-anchor="middle" x="648.5" y="-111.8" font-family="Helvetica,sans-Serif" font-size="14.00" fill="#000000">samples = 23</text>
<text text-anchor="middle" x="648.5" y="-96.8" font-family="Helvetica,sans-Serif" font-size="14.00" fill="#000000">value = [6, 17]</text>
</g>
<!-- 17&#45;&gt;18 -->
<g id="edge18" class="edge">
<title>17&#45;&gt;18</title>
<path fill="none" stroke="#000000" d="M688.8538,-192.9465C683.881,-184.3271 678.4757,-174.9579 673.2852,-165.9611"/>
<polygon fill="#000000" stroke="#000000" points="676.2193,-164.0428 668.1904,-157.13 670.156,-167.5409 676.2193,-164.0428"/>
</g>
<!-- 21 -->
<g id="node22" class="node">
<title>21</title>
<polygon fill="none" stroke="#000000" points="827,-157 720,-157 720,-89 827,-89 827,-157"/>
<text text-anchor="middle" x="773.5" y="-141.8" font-family="Helvetica,sans-Serif" font-size="14.00" fill="#000000">X[5] &lt;= 3.924</text>
<text text-anchor="middle" x="773.5" y="-126.8" font-family="Helvetica,sans-Serif" font-size="14.00" fill="#000000">gini = 0.091</text>
<text text-anchor="middle" x="773.5" y="-111.8" font-family="Helvetica,sans-Serif" font-size="14.00" fill="#000000">samples = 21</text>
<text text-anchor="middle" x="773.5" y="-96.8" font-family="Helvetica,sans-Serif" font-size="14.00" fill="#000000">value = [1, 20]</text>
</g>
<!-- 17&#45;&gt;21 -->
<g id="edge21" class="edge">
<title>17&#45;&gt;21</title>
<path fill="none" stroke="#000000" d="M729.7834,-192.9465C735.2267,-184.2373 741.1484,-174.7626 746.825,-165.6801"/>
<polygon fill="#000000" stroke="#000000" points="749.8367,-167.465 752.1688,-157.13 743.9007,-163.755 749.8367,-167.465"/>
</g>
<!-- 19 -->
<g id="node20" class="node">
<title>19</title>
<polygon fill="none" stroke="#000000" points="583,-53 476,-53 476,0 583,0 583,-53"/>
<text text-anchor="middle" x="529.5" y="-37.8" font-family="Helvetica,sans-Serif" font-size="14.00" fill="#000000">gini = 0.153</text>
<text text-anchor="middle" x="529.5" y="-22.8" font-family="Helvetica,sans-Serif" font-size="14.00" fill="#000000">samples = 12</text>
<text text-anchor="middle" x="529.5" y="-7.8" font-family="Helvetica,sans-Serif" font-size="14.00" fill="#000000">value = [1, 11]</text>
</g>
<!-- 18&#45;&gt;19 -->
<g id="edge19" class="edge">
<title>18&#45;&gt;19</title>
<path fill="none" stroke="#000000" d="M606.5451,-88.9777C594.8014,-79.4545 582.0562,-69.1191 570.376,-59.6473"/>
<polygon fill="#000000" stroke="#000000" points="572.4568,-56.8286 562.4852,-53.2485 568.0478,-62.2656 572.4568,-56.8286"/>
</g>
<!-- 20 -->
<g id="node21" class="node">
<title>20</title>
<polygon fill="none" stroke="#000000" points="705.5,-53 601.5,-53 601.5,0 705.5,0 705.5,-53"/>
<text text-anchor="middle" x="653.5" y="-37.8" font-family="Helvetica,sans-Serif" font-size="14.00" fill="#000000">gini = 0.496</text>
<text text-anchor="middle" x="653.5" y="-22.8" font-family="Helvetica,sans-Serif" font-size="14.00" fill="#000000">samples = 11</text>
<text text-anchor="middle" x="653.5" y="-7.8" font-family="Helvetica,sans-Serif" font-size="14.00" fill="#000000">value = [5, 6]</text>
</g>
<!-- 18&#45;&gt;20 -->
<g id="edge20" class="edge">
<title>18&#45;&gt;20</title>
<path fill="none" stroke="#000000" d="M650.2628,-88.9777C650.6946,-80.6449 651.1585,-71.6903 651.5966,-63.2364"/>
<polygon fill="#000000" stroke="#000000" points="655.0918,-63.4162 652.1141,-53.2485 648.1012,-63.0539 655.0918,-63.4162"/>
</g>
<!-- 22 -->
<g id="node23" class="node">
<title>22</title>
<polygon fill="none" stroke="#000000" points="823,-53 724,-53 724,0 823,0 823,-53"/>
<text text-anchor="middle" x="773.5" y="-37.8" font-family="Helvetica,sans-Serif" font-size="14.00" fill="#000000">gini = 0.444</text>
<text text-anchor="middle" x="773.5" y="-22.8" font-family="Helvetica,sans-Serif" font-size="14.00" fill="#000000">samples = 3</text>
<text text-anchor="middle" x="773.5" y="-7.8" font-family="Helvetica,sans-Serif" font-size="14.00" fill="#000000">value = [1, 2]</text>
</g>
<!-- 21&#45;&gt;22 -->
<g id="edge22" class="edge">
<title>21&#45;&gt;22</title>
<path fill="none" stroke="#000000" d="M773.5,-88.9777C773.5,-80.7364 773.5,-71.887 773.5,-63.5153"/>
<polygon fill="#000000" stroke="#000000" points="777.0001,-63.2484 773.5,-53.2485 770.0001,-63.2485 777.0001,-63.2484"/>
</g>
<!-- 23 -->
<g id="node24" class="node">
<title>23</title>
<polygon fill="none" stroke="#000000" points="948,-53 841,-53 841,0 948,0 948,-53"/>
<text text-anchor="middle" x="894.5" y="-37.8" font-family="Helvetica,sans-Serif" font-size="14.00" fill="#000000">gini = 0.0</text>
<text text-anchor="middle" x="894.5" y="-22.8" font-family="Helvetica,sans-Serif" font-size="14.00" fill="#000000">samples = 18</text>
<text text-anchor="middle" x="894.5" y="-7.8" font-family="Helvetica,sans-Serif" font-size="14.00" fill="#000000">value = [0, 18]</text>
</g>
<!-- 21&#45;&gt;23 -->
<g id="edge23" class="edge">
<title>21&#45;&gt;23</title>
<path fill="none" stroke="#000000" d="M816.1601,-88.9777C828.1011,-79.4545 841.0605,-69.1191 852.937,-59.6473"/>
<polygon fill="#000000" stroke="#000000" points="855.3246,-62.22 860.9605,-53.2485 850.96,-56.7473 855.3246,-62.22"/>
</g>
<!-- 25 -->
<g id="node26" class="node">
<title>25</title>
<polygon fill="none" stroke="#000000" points="944,-149.5 845,-149.5 845,-96.5 944,-96.5 944,-149.5"/>
<text text-anchor="middle" x="894.5" y="-134.3" font-family="Helvetica,sans-Serif" font-size="14.00" fill="#000000">gini = 0.0</text>
<text text-anchor="middle" x="894.5" y="-119.3" font-family="Helvetica,sans-Serif" font-size="14.00" fill="#000000">samples = 3</text>
<text text-anchor="middle" x="894.5" y="-104.3" font-family="Helvetica,sans-Serif" font-size="14.00" fill="#000000">value = [3, 0]</text>
</g>
<!-- 24&#45;&gt;25 -->
<g id="edge25" class="edge">
<title>24&#45;&gt;25</title>
<path fill="none" stroke="#000000" d="M894.5,-192.9465C894.5,-182.2621 894.5,-170.4254 894.5,-159.5742"/>
<polygon fill="#000000" stroke="#000000" points="898.0001,-159.5421 894.5,-149.5422 891.0001,-159.5422 898.0001,-159.5421"/>
</g>
<!-- 26 -->
<g id="node27" class="node">
<title>26</title>
<polygon fill="none" stroke="#000000" points="1061,-149.5 962,-149.5 962,-96.5 1061,-96.5 1061,-149.5"/>
<text text-anchor="middle" x="1011.5" y="-134.3" font-family="Helvetica,sans-Serif" font-size="14.00" fill="#000000">gini = 0.375</text>
<text text-anchor="middle" x="1011.5" y="-119.3" font-family="Helvetica,sans-Serif" font-size="14.00" fill="#000000">samples = 4</text>
<text text-anchor="middle" x="1011.5" y="-104.3" font-family="Helvetica,sans-Serif" font-size="14.00" fill="#000000">value = [1, 3]</text>
</g>
<!-- 24&#45;&gt;26 -->
<g id="edge26" class="edge">
<title>24&#45;&gt;26</title>
<path fill="none" stroke="#000000" d="M932.8102,-192.9465C946.0694,-181.1606 960.9058,-167.9726 974.0916,-156.2519"/>
<polygon fill="#000000" stroke="#000000" points="976.4912,-158.8018 981.6401,-149.5422 971.8407,-153.5699 976.4912,-158.8018"/>
</g>
</g>
</svg>
